# Blender 4.5.4 LTS
# www.blender.org
o classic_2m_Rail
v 0.456000 -0.300000 0.000000 1.0000 0.0000 0.0000
v 0.456000 -0.034000 0.000000 1.0000 0.0000 0.0000
v 0.600500 0.042000 0.000000 1.0000 0.0000 0.0000
v 0.656000 -0.300000 0.000000 1.0000 0.0000 0.0000
v 0.656000 -0.034000 0.000000 1.0000 0.0000 0.0000
v 0.400500 -0.034000 0.000000 1.0000 0.0000 0.0000
v 0.400500 0.042000 0.000000 1.0000 0.0000 0.0000
v 0.600500 -0.034000 0.000000 1.0000 0.0000 0.0000
v 0.456000 -0.034000 0.500000 1.0000 0.0000 0.0000
v 0.456000 -0.034000 1.000000 1.0000 0.0000 0.0000
v 0.456000 -0.034000 2.000000 1.0000 0.0000 0.0000
v 0.656000 -0.300000 0.500000 1.0000 0.0000 0.0000
v 0.656000 -0.300000 1.000000 1.0000 0.0000 0.0000
v 0.656000 -0.300000 2.000000 1.0000 0.0000 0.0000
v 0.456000 -0.300000 2.000000 1.0000 0.0000 0.0000
v 0.456000 -0.300000 1.000000 1.0000 0.0000 0.0000
v 0.456000 -0.300000 0.500000 1.0000 0.0000 0.0000
v 0.656000 -0.034000 2.000000 1.0000 0.0000 0.0000
v 0.656000 -0.034000 1.000000 1.0000 0.0000 0.0000
v 0.656000 -0.034000 0.500000 1.0000 0.0000 0.0000
v 0.600500 -0.034000 0.500000 1.0000 0.0000 0.0000
v 0.600500 -0.034000 1.000000 1.0000 0.0000 0.0000
v 0.600500 -0.034000 2.000000 1.0000 0.0000 0.0000
v 0.400500 -0.034000 2.000000 1.0000 0.0000 0.0000
v 0.400500 -0.034000 1.000000 1.0000 0.0000 0.0000
v 0.400500 -0.034000 0.500000 1.0000 0.0000 0.0000
v 0.400500 0.042000 0.500000 1.0000 0.0000 0.0000
v 0.400500 0.042000 1.000000 1.0000 0.0000 0.0000
v 0.400500 0.042000 2.000000 1.0000 0.0000 0.0000
v 0.600500 0.042000 2.000000 1.0000 0.0000 0.0000
v 0.600500 0.042000 1.000000 1.0000 0.0000 0.0000
v 0.600500 0.042000 0.500000 1.0000 0.0000 0.0000
v -0.456000 -0.300000 0.000000 1.0000 0.0000 0.0000
v -0.456000 -0.034000 0.000000 1.0000 0.0000 0.0000
v -0.600500 0.042000 0.000000 1.0000 0.0000 0.0000
v -0.656000 -0.300000 0.000000 1.0000 0.0000 0.0000
v -0.656000 -0.034000 0.000000 1.0000 0.0000 0.0000
v -0.400500 -0.034000 0.000000 1.0000 0.0000 0.0000
v -0.400500 0.042000 0.000000 1.0000 0.0000 0.0000
v -0.600500 -0.034000 0.000000 1.0000 0.0000 0.0000
v -0.456000 -0.034000 0.500000 1.0000 0.0000 0.0000
v -0.456000 -0.034000 1.000000 1.0000 0.0000 0.0000
v -0.456000 -0.034000 2.000000 1.0000 0.0000 0.0000
v -0.656000 -0.300000 0.500000 1.0000 0.0000 0.0000
v -0.656000 -0.300000 1.000000 1.0000 0.0000 0.0000
v -0.656000 -0.300000 2.000000 1.0000 0.0000 0.0000
v -0.456000 -0.300000 2.000000 1.0000 0.0000 0.0000
v -0.456000 -0.300000 1.000000 1.0000 0.0000 0.0000
v -0.456000 -0.300000 0.500000 1.0000 0.0000 0.0000
v -0.656000 -0.034000 2.000000 1.0000 0.0000 0.0000
v -0.656000 -0.034000 1.000000 1.0000 0.0000 0.0000
v -0.656000 -0.034000 0.500000 1.0000 0.0000 0.0000
v -0.600500 -0.034000 0.500000 1.0000 0.0000 0.0000
v -0.600500 -0.034000 1.000000 1.0000 0.0000 0.0000
v -0.600500 -0.034000 2.000000 1.0000 0.0000 0.0000
v -0.400500 -0.034000 2.000000 1.0000 0.0000 0.0000
v -0.400500 -0.034000 1.000000 1.0000 0.0000 0.0000
v -0.400500 -0.034000 0.500000 1.0000 0.0000 0.0000
v -0.400500 0.042000 0.500000 1.0000 0.0000 0.0000
v -0.400500 0.042000 1.000000 1.0000 0.0000 0.0000
v -0.400500 0.042000 2.000000 1.0000 0.0000 0.0000
v -0.600500 0.042000 2.000000 1.0000 0.0000 0.0000
v -0.600500 0.042000 1.000000 1.0000 0.0000 0.0000
v -0.600500 0.042000 0.500000 1.0000 0.0000 0.0000
v 0.456000 -0.300000 0.000000 1.0000 0.0000 0.0000
v 0.456000 -0.300000 0.000000 1.0000 0.0000 0.0000
v 0.456000 -0.034000 0.000000 1.0000 0.0000 0.0000
v 0.456000 -0.034000 0.000000 1.0000 0.0000 0.0000
v 0.656000 -0.034000 0.000000 1.0000 0.0000 0.0000
v 0.656000 -0.034000 0.000000 1.0000 0.0000 0.0000
v 0.656000 -0.300000 0.000000 1.0000 0.0000 0.0000
v 0.656000 -0.300000 0.000000 1.0000 0.0000 0.0000
v 0.400500 -0.034000 0.000000 1.0000 0.0000 0.0000
v 0.400500 -0.034000 0.000000 1.0000 0.0000 0.0000
v 0.400500 0.042000 0.000000 1.0000 0.0000 0.0000
v 0.400500 0.042000 0.000000 1.0000 0.0000 0.0000
v 0.600500 -0.034000 0.000000 1.0000 0.0000 0.0000
v 0.600500 -0.034000 0.000000 1.0000 0.0000 0.0000
v 0.600500 0.042000 0.000000 1.0000 0.0000 0.0000
v 0.600500 0.042000 0.000000 1.0000 0.0000 0.0000
v 0.456000 -0.300000 0.500000 1.0000 0.0000 0.0000
v 0.400500 -0.034000 0.500000 1.0000 0.0000 0.0000
v 0.656000 -0.034000 0.500000 1.0000 0.0000 0.0000
v 0.600500 0.042000 0.500000 1.0000 0.0000 0.0000
v 0.456000 -0.034000 0.500000 1.0000 0.0000 0.0000
v 0.456000 -0.034000 1.000000 1.0000 0.0000 0.0000
v 0.456000 -0.034000 2.000000 1.0000 0.0000 0.0000
v 0.456000 -0.034000 2.000000 1.0000 0.0000 0.0000
v 0.656000 -0.300000 0.500000 1.0000 0.0000 0.0000
v 0.656000 -0.300000 1.000000 1.0000 0.0000 0.0000
v 0.656000 -0.300000 2.000000 1.0000 0.0000 0.0000
v 0.656000 -0.300000 2.000000 1.0000 0.0000 0.0000
v 0.456000 -0.300000 2.000000 1.0000 0.0000 0.0000
v 0.456000 -0.300000 2.000000 1.0000 0.0000 0.0000
v 0.456000 -0.300000 1.000000 1.0000 0.0000 0.0000
v 0.656000 -0.034000 2.000000 1.0000 0.0000 0.0000
v 0.656000 -0.034000 2.000000 1.0000 0.0000 0.0000
v 0.656000 -0.034000 1.000000 1.0000 0.0000 0.0000
v 0.600500 -0.034000 0.500000 1.0000 0.0000 0.0000
v 0.600500 -0.034000 1.000000 1.0000 0.0000 0.0000
v 0.600500 -0.034000 2.000000 1.0000 0.0000 0.0000
v 0.600500 -0.034000 2.000000 1.0000 0.0000 0.0000
v 0.400500 -0.034000 2.000000 1.0000 0.0000 0.0000
v 0.400500 -0.034000 2.000000 1.0000 0.0000 0.0000
v 0.400500 -0.034000 1.000000 1.0000 0.0000 0.0000
v 0.400500 0.042000 0.500000 1.0000 0.0000 0.0000
v 0.400500 0.042000 1.000000 1.0000 0.0000 0.0000
v 0.400500 0.042000 2.000000 1.0000 0.0000 0.0000
v 0.400500 0.042000 2.000000 1.0000 0.0000 0.0000
v 0.600500 0.042000 2.000000 1.0000 0.0000 0.0000
v 0.600500 0.042000 2.000000 1.0000 0.0000 0.0000
v 0.600500 0.042000 1.000000 1.0000 0.0000 0.0000
v -0.456000 -0.300000 0.000000 1.0000 0.0000 0.0000
v -0.456000 -0.300000 0.000000 1.0000 0.0000 0.0000
v -0.456000 -0.034000 0.000000 1.0000 0.0000 0.0000
v -0.456000 -0.034000 0.000000 1.0000 0.0000 0.0000
v -0.656000 -0.034000 0.000000 1.0000 0.0000 0.0000
v -0.656000 -0.034000 0.000000 1.0000 0.0000 0.0000
v -0.656000 -0.300000 0.000000 1.0000 0.0000 0.0000
v -0.656000 -0.300000 0.000000 1.0000 0.0000 0.0000
v -0.400500 -0.034000 0.000000 1.0000 0.0000 0.0000
v -0.400500 -0.034000 0.000000 1.0000 0.0000 0.0000
v -0.400500 0.042000 0.000000 1.0000 0.0000 0.0000
v -0.400500 0.042000 0.000000 1.0000 0.0000 0.0000
v -0.600500 -0.034000 0.000000 1.0000 0.0000 0.0000
v -0.600500 -0.034000 0.000000 1.0000 0.0000 0.0000
v -0.600500 0.042000 0.000000 1.0000 0.0000 0.0000
v -0.600500 0.042000 0.000000 1.0000 0.0000 0.0000
v -0.456000 -0.300000 0.500000 1.0000 0.0000 0.0000
v -0.400500 -0.034000 0.500000 1.0000 0.0000 0.0000
v -0.656000 -0.034000 0.500000 1.0000 0.0000 0.0000
v -0.600500 0.042000 0.500000 1.0000 0.0000 0.0000
v -0.456000 -0.034000 0.500000 1.0000 0.0000 0.0000
v -0.456000 -0.034000 1.000000 1.0000 0.0000 0.0000
v -0.456000 -0.034000 2.000000 1.0000 0.0000 0.0000
v -0.456000 -0.034000 2.000000 1.0000 0.0000 0.0000
v -0.656000 -0.300000 0.500000 1.0000 0.0000 0.0000
v -0.656000 -0.300000 1.000000 1.0000 0.0000 0.0000
v -0.656000 -0.300000 2.000000 1.0000 0.0000 0.0000
v -0.656000 -0.300000 2.000000 1.0000 0.0000 0.0000
v -0.456000 -0.300000 2.000000 1.0000 0.0000 0.0000
v -0.456000 -0.300000 2.000000 1.0000 0.0000 0.0000
v -0.456000 -0.300000 1.000000 1.0000 0.0000 0.0000
v -0.656000 -0.034000 2.000000 1.0000 0.0000 0.0000
v -0.656000 -0.034000 2.000000 1.0000 0.0000 0.0000
v -0.656000 -0.034000 1.000000 1.0000 0.0000 0.0000
v -0.600500 -0.034000 0.500000 1.0000 0.0000 0.0000
v -0.600500 -0.034000 1.000000 1.0000 0.0000 0.0000
v -0.600500 -0.034000 2.000000 1.0000 0.0000 0.0000
v -0.600500 -0.034000 2.000000 1.0000 0.0000 0.0000
v -0.400500 -0.034000 2.000000 1.0000 0.0000 0.0000
v -0.400500 -0.034000 2.000000 1.0000 0.0000 0.0000
v -0.400500 -0.034000 1.000000 1.0000 0.0000 0.0000
v -0.400500 0.042000 0.500000 1.0000 0.0000 0.0000
v -0.400500 0.042000 1.000000 1.0000 0.0000 0.0000
v -0.400500 0.042000 2.000000 1.0000 0.0000 0.0000
v -0.400500 0.042000 2.000000 1.0000 0.0000 0.0000
v -0.600500 0.042000 2.000000 1.0000 0.0000 0.0000
v -0.600500 0.042000 2.000000 1.0000 0.0000 0.0000
v -0.600500 0.042000 1.000000 1.0000 0.0000 0.0000
vn -0.0000 -1.0000 -0.0000
vn -0.0000 1.0000 -0.0000
vn -0.0000 -0.0000 1.0000
vn -0.0000 -0.0000 -1.0000
vn -1.0000 -0.0000 -0.0000
vn 1.0000 -0.0000 -0.0000
vt 0.250000 0.749999
vt 0.250000 0.749999
s 1
f 73/1/4 75/1/4 79/1/4 77/1/4
f 65/1/4 67/1/4 69/1/4 71/1/4
f 70/1/6 83/1/6 89/1/6 72/1/6
f 83/1/6 98/1/6 90/1/6 89/1/6
f 98/1/6 96/1/6 91/1/6 90/1/6
f 66/1/5 81/1/5 85/1/5 68/1/5
f 81/1/5 95/1/5 86/1/5 85/1/5
f 95/1/5 93/1/5 87/1/5 86/1/5
f 5/1/2 2/1/2 9/1/2 20/1/2
f 20/1/2 9/1/2 10/1/2 19/1/2
f 19/1/2 10/1/2 88/1/2 97/1/2
f 1/1/1 4/1/1 12/1/1 17/1/1
f 17/1/1 12/1/1 13/1/1 16/1/1
f 16/1/1 13/1/1 92/1/1 94/1/1
f 80/1/6 84/2/6 99/1/6 78/1/6
f 84/2/6 112/2/6 100/1/6 99/1/6
f 112/2/6 110/2/6 101/1/6 100/1/6
f 74/1/5 82/1/5 106/1/5 76/1/5
f 82/1/5 105/1/5 107/1/5 106/1/5
f 105/1/5 103/1/5 108/1/5 107/1/5
f 3/1/2 7/1/2 27/1/2 32/1/2
f 32/1/2 27/1/2 28/1/2 31/1/2
f 31/1/2 28/1/2 109/1/2 111/1/2
f 18/1/3 11/1/3 15/1/3 14/1/3
f 30/1/3 29/1/3 104/1/3 102/1/3
f 6/1/1 8/1/1 21/1/1 26/1/1
f 26/1/1 21/1/1 22/1/1 25/1/1
f 25/1/1 22/1/1 23/1/1 24/1/1
f 121/1/4 125/1/4 127/1/4 123/1/4
f 113/1/4 119/1/4 117/1/4 115/1/4
f 118/1/5 120/1/5 137/1/5 131/1/5
f 131/1/5 137/1/5 138/1/5 146/1/5
f 146/1/5 138/1/5 139/1/5 144/1/5
f 114/1/6 116/1/6 133/1/6 129/1/6
f 129/1/6 133/1/6 134/1/6 143/1/6
f 143/1/6 134/1/6 135/1/6 141/1/6
f 37/1/2 52/1/2 41/1/2 34/1/2
f 52/1/2 51/1/2 42/1/2 41/1/2
f 51/1/2 145/1/2 136/1/2 42/1/2
f 33/1/1 49/1/1 44/1/1 36/1/1
f 49/1/1 48/1/1 45/1/1 44/1/1
f 48/1/1 142/1/1 140/1/1 45/1/1
f 128/1/5 126/1/5 147/1/5 132/2/5
f 132/2/5 147/1/5 148/1/5 160/2/5
f 160/2/5 148/1/5 149/1/5 158/2/5
f 122/1/6 124/1/6 154/1/6 130/1/6
f 130/1/6 154/1/6 155/1/6 153/1/6
f 153/1/6 155/1/6 156/1/6 151/1/6
f 35/1/2 64/1/2 59/1/2 39/1/2
f 64/1/2 63/1/2 60/1/2 59/1/2
f 63/1/2 159/1/2 157/1/2 60/1/2
f 50/1/3 46/1/3 47/1/3 43/1/3
f 62/1/3 150/1/3 152/1/3 61/1/3
f 38/1/1 58/1/1 53/1/1 40/1/1
f 58/1/1 57/1/1 54/1/1 53/1/1
f 57/1/1 56/1/1 55/1/1 54/1/1
o classic_2m_Ties
v -0.900000 -0.390000 0.455000 1.0000 0.0000 0.0000
v -0.900000 -0.300000 0.455000 1.0000 0.0000 0.0000
v -0.900000 -0.390000 0.545000 1.0000 0.0000 0.0000
v -0.900000 -0.300000 0.545000 1.0000 0.0000 0.0000
v 0.900000 -0.390000 0.455000 1.0000 0.0000 0.0000
v 0.900000 -0.300000 0.455000 1.0000 0.0000 0.0000
v 0.900000 -0.390000 0.545000 1.0000 0.0000 0.0000
v 0.900000 -0.300000 0.545000 1.0000 0.0000 0.0000
v -0.900000 -0.300000 0.545000 1.0000 0.0000 0.0000
v -0.900000 -0.300000 0.545000 1.0000 0.0000 0.0000
v -0.900000 -0.390000 0.545000 1.0000 0.0000 0.0000
v -0.900000 -0.390000 0.545000 1.0000 0.0000 0.0000
v -0.900000 -0.390000 0.455000 1.0000 0.0000 0.0000
v -0.900000 -0.390000 0.455000 1.0000 0.0000 0.0000
v -0.900000 -0.300000 0.455000 1.0000 0.0000 0.0000
v -0.900000 -0.300000 0.455000 1.0000 0.0000 0.0000
v 0.900000 -0.300000 0.545000 1.0000 0.0000 0.0000
v 0.900000 -0.300000 0.545000 1.0000 0.0000 0.0000
v 0.900000 -0.390000 0.545000 1.0000 0.0000 0.0000
v 0.900000 -0.390000 0.545000 1.0000 0.0000 0.0000
v 0.900000 -0.390000 0.455000 1.0000 0.0000 0.0000
v 0.900000 -0.390000 0.455000 1.0000 0.0000 0.0000
v 0.900000 -0.300000 0.455000 1.0000 0.0000 0.0000
v 0.900000 -0.300000 0.455000 1.0000 0.0000 0.0000
v -0.900000 -0.390000 1.455000 1.0000 0.0000 0.0000
v -0.900000 -0.300000 1.455000 1.0000 0.0000 0.0000
v -0.900000 -0.390000 1.545000 1.0000 0.0000 0.0000
v -0.900000 -0.300000 1.545000 1.0000 0.0000 0.0000
v 0.900000 -0.390000 1.455000 1.0000 0.0000 0.0000
v 0.900000 -0.300000 1.455000 1.0000 0.0000 0.0000
v 0.900000 -0.390000 1.545000 1.0000 0.0000 0.0000
v 0.900000 -0.300000 1.545000 1.0000 0.0000 0.0000
v -0.900000 -0.300000 1.545000 1.0000 0.0000 0.0000
v -0.900000 -0.300000 1.545000 1.0000 0.0000 0.0000
v -0.900000 -0.390000 1.545000 1.0000 0.0000 0.0000
v -0.900000 -0.390000 1.545000 1.0000 0.0000 0.0000
v -0.900000 -0.390000 1.455000 1.0000 0.0000 0.0000
v -0.900000 -0.390000 1.455000 1.0000 0.0000 0.0000
v -0.900000 -0.300000 1.455000 1.0000 0.0000 0.0000
v -0.900000 -0.300000 1.455000 1.0000 0.0000 0.0000
v 0.900000 -0.300000 1.545000 1.0000 0.0000 0.0000
v 0.900000 -0.300000 1.545000 1.0000 0.0000 0.0000
v 0.900000 -0.390000 1.545000 1.0000 0.0000 0.0000
v 0.900000 -0.390000 1.545000 1.0000 0.0000 0.0000
v 0.900000 -0.390000 1.455000 1.0000 0.0000 0.0000
v 0.900000 -0.390000 1.455000 1.0000 0.0000 0.0000
v 0.900000 -0.300000 1.455000 1.0000 0.0000 0.0000
v 0.900000 -0.300000 1.455000 1.0000 0.0000 0.0000
vn -1.0000 -0.0000 -0.0000
vn -0.0000 -0.0000 -1.0000
vn -0.0000 -1.0000 -0.0000
vn -0.0000 -0.0000 1.0000
vn 1.0000 -0.0000 -0.0000
vn -0.0000 1.0000 -0.0000
vt 0.250000 0.750000
s 0
f 171/3/7 169/3/7 175/3/7 173/3/7
f 182/3/8 174/3/8 176/3/8 184/3/8
f 161/3/9 181/3/9 180/3/9 172/3/9
f 163/3/10 179/3/10 177/3/10 170/3/10
f 167/3/11 165/3/11 183/3/11 178/3/11
f 168/3/12 166/3/12 162/3/12 164/3/12
f 195/3/7 193/3/7 199/3/7 197/3/7
f 206/3/8 198/3/8 200/3/8 208/3/8
f 185/3/9 205/3/9 204/3/9 196/3/9
f 187/3/10 203/3/10 201/3/10 194/3/10
f 191/3/11 189/3/11 207/3/11 202/3/11
f 192/3/12 190/3/12 186/3/12 188/3/12
o classic_2m_Topper
v 0.598250 0.042000 -0.000000 0.0000 1.0000 0.0000
v 0.488250 0.042000 2.000000 0.0000 1.0000 0.0000
v 0.488250 0.053000 2.000000 0.0000 1.0000 0.0000
v 0.598250 0.042000 2.000000 0.0000 1.0000 0.0000
v 0.598250 0.053000 2.000000 0.0000 1.0000 0.0000
v 0.488250 0.042000 0.000000 0.0000 1.0000 0.0000
v 0.488250 0.053000 0.000000 0.0000 1.0000 0.0000
v 0.598250 0.053000 0.000000 0.0000 1.0000 0.0000
v 0.598250 0.053000 0.500000 0.0000 1.0000 0.0000
v 0.598250 0.053000 1.000000 0.0000 1.0000 0.0000
v 0.598250 0.042000 1.000000 0.0000 1.0000 0.0000
v 0.598250 0.042000 0.500000 0.0000 1.0000 0.0000
v 0.488250 0.042000 1.000000 0.0000 1.0000 0.0000
v 0.488250 0.042000 0.500000 0.0000 1.0000 0.0000
v 0.488250 0.053000 0.500000 0.0000 1.0000 0.0000
v 0.488250 0.053000 1.000000 0.0000 1.0000 0.0000
v -0.598250 0.042000 -0.000000 0.0000 1.0000 0.0000
v -0.488250 0.042000 2.000000 0.0000 1.0000 0.0000
v -0.488250 0.053000 2.000000 0.0000 1.0000 0.0000
v -0.598250 0.042000 2.000000 0.0000 1.0000 0.0000
v -0.598250 0.053000 2.000000 0.0000 1.0000 0.0000
v -0.488250 0.042000 0.000000 0.0000 1.0000 0.0000
v -0.488250 0.053000 0.000000 0.0000 1.0000 0.0000
v -0.598250 0.053000 0.000000 0.0000 1.0000 0.0000
v -0.598250 0.053000 0.500000 0.0000 1.0000 0.0000
v -0.598250 0.053000 1.000000 0.0000 1.0000 0.0000
v -0.598250 0.042000 1.000000 0.0000 1.0000 0.0000
v -0.598250 0.042000 0.500000 0.0000 1.0000 0.0000
v -0.488250 0.042000 1.000000 0.0000 1.0000 0.0000
v -0.488250 0.042000 0.500000 0.0000 1.0000 0.0000
v -0.488250 0.053000 0.500000 0.0000 1.0000 0.0000
v -0.488250 0.053000 1.000000 0.0000 1.0000 0.0000
v 0.488250 0.042000 2.000000 0.0000 1.0000 0.0000
v 0.488250 0.042000 2.000000 0.0000 1.0000 0.0000
v 0.488250 0.053000 2.000000 0.0000 1.0000 0.0000
v 0.488250 0.053000 2.000000 0.0000 1.0000 0.0000
v 0.598250 0.053000 2.000000 0.0000 1.0000 0.0000
v 0.598250 0.053000 2.000000 0.0000 1.0000 0.0000
v 0.598250 0.042000 2.000000 0.0000 1.0000 0.0000
v 0.598250 0.042000 2.000000 0.0000 1.0000 0.0000
v 0.488250 0.042000 0.000000 0.0000 1.0000 0.0000
v 0.488250 0.042000 0.000000 0.0000 1.0000 0.0000
v 0.488250 0.053000 0.000000 0.0000 1.0000 0.0000
v 0.488250 0.053000 0.000000 0.0000 1.0000 0.0000
v 0.598250 0.053000 0.000000 0.0000 1.0000 0.0000
v 0.598250 0.053000 0.000000 0.0000 1.0000 0.0000
v 0.598250 0.042000 -0.000000 0.0000 1.0000 0.0000
v 0.598250 0.042000 -0.000000 0.0000 1.0000 0.0000
v 0.598250 0.042000 0.500000 0.0000 1.0000 0.0000
v 0.488250 0.042000 0.500000 0.0000 1.0000 0.0000
v 0.488250 0.042000 1.000000 0.0000 1.0000 0.0000
v 0.598250 0.053000 0.500000 0.0000 1.0000 0.0000
v 0.598250 0.053000 1.000000 0.0000 1.0000 0.0000
v 0.598250 0.042000 1.000000 0.0000 1.0000 0.0000
v 0.488250 0.053000 0.500000 0.0000 1.0000 0.0000
v 0.488250 0.053000 1.000000 0.0000 1.0000 0.0000
v -0.488250 0.042000 2.000000 0.0000 1.0000 0.0000
v -0.488250 0.042000 2.000000 0.0000 1.0000 0.0000
v -0.488250 0.053000 2.000000 0.0000 1.0000 0.0000
v -0.488250 0.053000 2.000000 0.0000 1.0000 0.0000
v -0.598250 0.053000 2.000000 0.0000 1.0000 0.0000
v -0.598250 0.053000 2.000000 0.0000 1.0000 0.0000
v -0.598250 0.042000 2.000000 0.0000 1.0000 0.0000
v -0.598250 0.042000 2.000000 0.0000 1.0000 0.0000
v -0.488250 0.042000 0.000000 0.0000 1.0000 0.0000
v -0.488250 0.042000 0.000000 0.0000 1.0000 0.0000
v -0.488250 0.053000 0.000000 0.0000 1.0000 0.0000
v -0.488250 0.053000 0.000000 0.0000 1.0000 0.0000
v -0.598250 0.053000 0.000000 0.0000 1.0000 0.0000
v -0.598250 0.053000 0.000000 0.0000 1.0000 0.0000
v -0.598250 0.042000 -0.000000 0.0000 1.0000 0.0000
v -0.598250 0.042000 -0.000000 0.0000 1.0000 0.0000
v -0.598250 0.042000 0.500000 0.0000 1.0000 0.0000
v -0.488250 0.042000 0.500000 0.0000 1.0000 0.0000
v -0.488250 0.042000 1.000000 0.0000 1.0000 0.0000
v -0.598250 0.053000 0.500000 0.0000 1.0000 0.0000
v -0.598250 0.053000 1.000000 0.0000 1.0000 0.0000
v -0.598250 0.042000 1.000000 0.0000 1.0000 0.0000
v -0.488250 0.053000 0.500000 0.0000 1.0000 0.0000
v -0.488250 0.053000 1.000000 0.0000 1.0000 0.0000
vn 1.0000 -0.0000 -0.0000
vn -1.0000 -0.0000 -0.0000
vn -0.0000 1.0000 -0.0000
vn -0.0000 -1.0000 -0.0000
vn -0.0000 -0.0000 1.0000
vn -0.0000 -0.0000 -1.0000
vt 0.750000 0.750000
vt 0.750000 0.750000
s 1
f 241/4/17 247/4/17 245/4/17 243/4/17
f 249/4/18 251/4/18 253/4/18 255/4/18
f 252/5/14 250/5/14 258/4/14 263/4/14
f 263/4/14 258/4/14 221/4/14 264/4/14
f 259/4/16 262/4/16 248/4/16 242/4/16
f 219/4/13 218/4/13 246/4/13 212/4/13
f 261/4/15 224/4/15 244/4/15 213/4/15
f 264/4/14 221/4/14 210/4/14 211/4/14
f 254/4/15 215/4/15 223/4/15 260/4/15
f 260/4/15 223/4/15 224/4/15 261/4/15
f 214/4/16 256/4/16 257/4/16 222/4/16
f 222/4/16 257/4/16 262/4/16 259/4/16
f 209/5/13 216/5/13 217/4/13 220/4/13
f 220/4/13 217/4/13 218/4/13 219/4/13
f 265/4/17 267/4/17 269/4/17 271/4/17
f 273/4/18 279/4/18 277/4/18 275/4/18
f 276/5/13 287/4/13 282/4/13 274/5/13
f 287/4/13 288/4/13 237/4/13 282/4/13
f 283/4/16 266/4/16 272/4/16 286/4/16
f 235/4/14 228/4/14 270/4/14 234/4/14
f 285/4/15 229/4/15 268/4/15 240/4/15
f 288/4/13 227/4/13 226/4/13 237/4/13
f 278/4/15 284/4/15 239/4/15 231/4/15
f 284/4/15 285/4/15 240/4/15 239/4/15
f 230/4/16 238/4/16 281/4/16 280/4/16
f 238/4/16 283/4/16 286/4/16 281/4/16
f 225/5/14 236/4/14 233/4/14 232/5/14
f 236/4/14 235/4/14 234/4/14 233/4/14
