# Blender 4.4.3
# www.blender.org
o DefaultTie
v 0.900000 -0.390000 0.045000
v 0.900000 -0.300000 0.045000
v 0.900000 -0.390000 -0.045000
v 0.900000 -0.300000 -0.045000
v -0.900000 -0.390000 0.045000
v -0.900000 -0.300000 0.045000
v -0.900000 -0.390000 -0.045000
v -0.900000 -0.300000 -0.045000
v 0.900000 -0.300000 -0.045000
v 0.900000 -0.300000 -0.045000
v 0.900000 -0.390000 -0.045000
v 0.900000 -0.390000 -0.045000
v 0.900000 -0.390000 0.045000
v 0.900000 -0.390000 0.045000
v 0.900000 -0.300000 0.045000
v 0.900000 -0.300000 0.045000
v -0.900000 -0.300000 -0.045000
v -0.900000 -0.300000 -0.045000
v -0.900000 -0.390000 -0.045000
v -0.900000 -0.390000 -0.045000
v -0.900000 -0.390000 0.045000
v -0.900000 -0.390000 0.045000
v -0.900000 -0.300000 0.045000
v -0.900000 -0.300000 0.045000
vn 1.0000 -0.0000 -0.0000
vn -0.0000 -0.0000 1.0000
vn -0.0000 -1.0000 -0.0000
vn -0.0000 -0.0000 -1.0000
vn -1.0000 -0.0000 -0.0000
vn -0.0000 1.0000 -0.0000
vt 0.050000 0.800000
vt 0.000000 0.750000
vt 0.050000 0.750000
vt 1.000000 0.950000
vt 0.000000 1.000000
vt 0.000000 0.950000
vt 0.000000 0.950000
vt 1.000000 0.900000
vt 1.000000 0.850000
vt 0.000000 0.900000
vt 0.000000 0.850000
vt 0.100000 0.750000
vt 0.050000 0.800000
vt 0.050000 0.750000
vt 0.000000 0.800000
vt 1.000000 0.800000
vt 0.000000 0.800000
vt 1.000000 1.000000
vt 0.000000 0.900000
vt 1.000000 0.900000
vt 0.100000 0.800000
vt 0.000000 0.850000
s 0
f 9/1/1 13/2/1 11/3/1
f 14/4/2 24/5/2 22/6/2
f 21/7/3 12/8/3 1/4/3
f 19/9/4 10/10/4 3/11/4
f 5/12/5 18/13/5 7/14/5
f 6/9/6 4/15/6 8/16/6
f 9/1/1 15/17/1 13/2/1
f 14/4/2 16/18/2 24/5/2
f 21/7/3 20/19/3 12/8/3
f 19/9/4 17/20/4 10/10/4
f 5/12/5 23/21/5 18/13/5
f 6/9/6 2/22/6 4/15/6
