# Blender 4.5.4 LTS
# www.blender.org
o hybrid_10m_ties.001
v 0.758994 -0.331885 0.452822 0.0000 1.0000 0.0000
v 0.758994 -0.322414 0.452822 0.0000 1.0000 0.0000
v 0.758994 -0.331885 0.554243 0.0000 1.0000 0.0000
v 0.758994 -0.322414 0.554243 0.0000 1.0000 0.0000
v -0.758994 -0.331885 0.452822 0.0000 1.0000 0.0000
v -0.758994 -0.322414 0.452822 0.0000 1.0000 0.0000
v -0.758994 -0.331885 0.554243 0.0000 1.0000 0.0000
v -0.758994 -0.322414 0.554243 0.0000 1.0000 0.0000
v 0.758994 -0.331885 0.462936 0.0000 1.0000 0.0000
v 0.758994 -0.322414 0.462936 0.0000 1.0000 0.0000
v -0.758994 -0.331885 0.462936 0.0000 1.0000 0.0000
v -0.758994 -0.322414 0.462936 0.0000 1.0000 0.0000
v 0.758994 -0.422903 0.462936 0.0000 1.0000 0.0000
v 0.758994 -0.422903 0.452822 0.0000 1.0000 0.0000
v -0.758994 -0.422903 0.452822 0.0000 1.0000 0.0000
v -0.758994 -0.422903 0.462936 0.0000 1.0000 0.0000
v 0.758994 -0.331885 1.452822 0.0000 1.0000 0.0000
v 0.758994 -0.322414 1.452822 0.0000 1.0000 0.0000
v 0.758994 -0.331885 1.554243 0.0000 1.0000 0.0000
v 0.758994 -0.322414 1.554243 0.0000 1.0000 0.0000
v -0.758994 -0.331885 1.452822 0.0000 1.0000 0.0000
v -0.758994 -0.322414 1.452822 0.0000 1.0000 0.0000
v -0.758994 -0.331885 1.554243 0.0000 1.0000 0.0000
v -0.758994 -0.322414 1.554243 0.0000 1.0000 0.0000
v 0.758994 -0.331885 1.462936 0.0000 1.0000 0.0000
v 0.758994 -0.322414 1.462936 0.0000 1.0000 0.0000
v -0.758994 -0.331885 1.462936 0.0000 1.0000 0.0000
v -0.758994 -0.322414 1.462935 0.0000 1.0000 0.0000
v 0.758994 -0.422903 1.462936 0.0000 1.0000 0.0000
v 0.758994 -0.422903 1.452822 0.0000 1.0000 0.0000
v -0.758994 -0.422903 1.452822 0.0000 1.0000 0.0000
v -0.758994 -0.422903 1.462936 0.0000 1.0000 0.0000
vn 1.0000 -0.0000 -0.0000
vn -0.0000 -0.0000 1.0000
vn -1.0000 -0.0000 -0.0000
vn -0.0000 -0.0000 -1.0000
vn -0.0000 1.0000 -0.0000
vn -0.0000 -1.0000 -0.0000
vt 0.375000 0.026243
vt 0.625000 0.026243
vt 0.625000 0.250000
vt 0.375000 0.250000
vt 0.625000 0.500000
vt 0.375000 0.500000
vt 0.375000 0.723757
vt 0.625000 0.723757
vt 0.625000 0.750000
vt 0.375000 0.750000
vt 0.625000 1.000000
vt 0.375000 1.000000
vt 0.875000 0.723757
vt 0.875000 0.750000
vt 0.875000 0.500000
vt 0.125000 0.500000
vt 0.125000 0.723757
vt 0.375000 0.000000
vt 0.625000 0.000000
vt 0.125000 0.750000
s 0
f 9/1/1 10/2/1 4/3/1 3/4/1
f 3/4/2 4/3/2 8/5/2 7/6/2
f 11/7/3 12/8/3 6/9/3 5/10/3
f 5/10/4 6/9/4 2/11/4 1/12/4
f 5/10/4 1/12/4 14/12/4 15/10/4
f 12/8/5 10/13/5 2/14/5 6/9/5
f 8/5/5 4/15/5 10/13/5 12/8/5
f 3/16/6 7/6/6 11/7/6 9/17/6
f 7/6/3 8/5/3 12/8/3 11/7/3
f 1/18/1 2/19/1 10/2/1 9/1/1
f 13/17/6 16/7/6 15/10/6 14/20/6
f 9/17/2 11/7/2 16/7/2 13/17/2
f 1/18/1 9/1/1 13/1/1 14/18/1
f 11/7/3 5/10/3 15/10/3 16/7/3
f 25/1/1 26/2/1 20/3/1 19/4/1
f 19/4/2 20/3/2 24/5/2 23/6/2
f 27/7/3 28/8/3 22/9/3 21/10/3
f 21/10/4 22/9/4 18/11/4 17/12/4
f 21/10/4 17/12/4 30/12/4 31/10/4
f 28/8/5 26/13/5 18/14/5 22/9/5
f 24/5/5 20/15/5 26/13/5 28/8/5
f 19/16/6 23/6/6 27/7/6 25/17/6
f 23/6/3 24/5/3 28/8/3 27/7/3
f 17/18/1 18/19/1 26/2/1 25/1/1
f 29/17/6 32/7/6 31/10/6 30/20/6
f 25/17/2 27/7/2 32/7/2 29/17/2
f 17/18/1 25/1/1 29/1/1 30/18/1
f 27/7/3 21/10/3 31/10/3 32/7/3
o hybrid_10m_rail.001
v 0.642712 0.032955 -0.000000 1.0000 0.0000 0.0000
v 0.642712 0.052969 0.000000 1.0000 0.0000 0.0000
v 0.642896 -0.322559 2.000000 1.0000 0.0000 0.0000
v 0.405111 0.052969 0.000000 1.0000 0.0000 0.0000
v 0.642896 -0.302575 2.000000 1.0000 0.0000 0.0000
v 0.414760 -0.322559 2.000000 1.0000 0.0000 0.0000
v 0.414760 -0.302575 2.000000 1.0000 0.0000 0.0000
v 0.466353 -0.302575 2.000000 1.0000 0.0000 0.0000
v 0.590543 0.032955 -0.000000 1.0000 0.0000 0.0000
v 0.405111 -0.052323 -0.000000 1.0000 0.0000 0.0000
v 0.590543 -0.302575 2.000000 1.0000 0.0000 0.0000
v 0.466353 -0.052323 -0.000000 1.0000 0.0000 0.0000
v 0.466353 -0.052323 2.000000 1.0000 0.0000 0.0000
v 0.590543 -0.302574 -0.000000 1.0000 0.0000 0.0000
v 0.466353 -0.302574 -0.000000 1.0000 0.0000 0.0000
v 0.405111 -0.052323 2.000000 1.0000 0.0000 0.0000
v 0.590543 0.032955 2.000000 1.0000 0.0000 0.0000
v 0.405111 0.052969 2.000000 1.0000 0.0000 0.0000
v 0.414760 -0.302574 -0.000000 1.0000 0.0000 0.0000
v 0.414760 -0.322558 -0.000000 1.0000 0.0000 0.0000
v 0.642712 0.052969 2.000000 1.0000 0.0000 0.0000
v 0.642896 -0.302574 -0.000000 1.0000 0.0000 0.0000
v 0.642712 0.032955 2.000000 1.0000 0.0000 0.0000
v 0.642896 -0.322558 -0.000000 1.0000 0.0000 0.0000
v 0.642896 -0.322559 1.500000 1.0000 0.0000 0.0000
v 0.642896 -0.322559 1.000000 1.0000 0.0000 0.0000
v 0.642896 -0.322559 0.500000 1.0000 0.0000 0.0000
v 0.405111 0.052969 0.500000 1.0000 0.0000 0.0000
v 0.405111 0.052969 1.000000 1.0000 0.0000 0.0000
v 0.405111 0.052969 1.500000 1.0000 0.0000 0.0000
v 0.590543 -0.302574 1.500000 1.0000 0.0000 0.0000
v 0.590543 -0.302574 1.000000 1.0000 0.0000 0.0000
v 0.590543 -0.302574 0.500000 1.0000 0.0000 0.0000
v 0.642896 -0.302574 1.500000 1.0000 0.0000 0.0000
v 0.642896 -0.302574 1.000000 1.0000 0.0000 0.0000
v 0.642896 -0.302574 0.500000 1.0000 0.0000 0.0000
v 0.414760 -0.302574 1.500000 1.0000 0.0000 0.0000
v 0.414760 -0.302574 1.000000 1.0000 0.0000 0.0000
v 0.414760 -0.302574 0.500000 1.0000 0.0000 0.0000
v 0.466353 -0.052323 0.500000 1.0000 0.0000 0.0000
v 0.466353 -0.052323 1.000000 1.0000 0.0000 0.0000
v 0.466353 -0.052323 1.500000 1.0000 0.0000 0.0000
v 0.642712 0.032955 0.500000 1.0000 0.0000 0.0000
v 0.642712 0.032955 1.000000 1.0000 0.0000 0.0000
v 0.642712 0.032955 1.500000 1.0000 0.0000 0.0000
v 0.414760 -0.322559 1.500000 1.0000 0.0000 0.0000
v 0.414760 -0.322559 1.000000 1.0000 0.0000 0.0000
v 0.414760 -0.322559 0.500000 1.0000 0.0000 0.0000
v 0.642712 0.052969 0.500000 1.0000 0.0000 0.0000
v 0.642712 0.052969 1.000000 1.0000 0.0000 0.0000
v 0.642712 0.052969 1.500000 1.0000 0.0000 0.0000
v 0.590543 0.032955 0.500000 1.0000 0.0000 0.0000
v 0.590543 0.032955 1.000000 1.0000 0.0000 0.0000
v 0.590543 0.032955 1.500000 1.0000 0.0000 0.0000
v 0.466353 -0.302574 1.500000 1.0000 0.0000 0.0000
v 0.466353 -0.302574 1.000000 1.0000 0.0000 0.0000
v 0.466353 -0.302574 0.500000 1.0000 0.0000 0.0000
v 0.405111 -0.052323 0.500000 1.0000 0.0000 0.0000
v 0.405111 -0.052323 1.000000 1.0000 0.0000 0.0000
v 0.405111 -0.052323 1.500000 1.0000 0.0000 0.0000
v -0.642712 0.032955 -0.000000 1.0000 0.0000 0.0000
v -0.642712 0.052969 0.000000 1.0000 0.0000 0.0000
v -0.642896 -0.322559 2.000000 1.0000 0.0000 0.0000
v -0.405111 0.052969 0.000000 1.0000 0.0000 0.0000
v -0.642896 -0.302575 2.000000 1.0000 0.0000 0.0000
v -0.414760 -0.322559 2.000000 1.0000 0.0000 0.0000
v -0.414760 -0.302575 2.000000 1.0000 0.0000 0.0000
v -0.466353 -0.302575 2.000000 1.0000 0.0000 0.0000
v -0.590543 0.032955 -0.000000 1.0000 0.0000 0.0000
v -0.405111 -0.052323 -0.000000 1.0000 0.0000 0.0000
v -0.590543 -0.302575 2.000000 1.0000 0.0000 0.0000
v -0.466353 -0.052323 -0.000000 1.0000 0.0000 0.0000
v -0.466353 -0.052323 2.000000 1.0000 0.0000 0.0000
v -0.590543 -0.302574 -0.000000 1.0000 0.0000 0.0000
v -0.466353 -0.302574 -0.000000 1.0000 0.0000 0.0000
v -0.405111 -0.052323 2.000000 1.0000 0.0000 0.0000
v -0.590543 0.032955 2.000000 1.0000 0.0000 0.0000
v -0.405111 0.052969 2.000000 1.0000 0.0000 0.0000
v -0.414760 -0.302574 -0.000000 1.0000 0.0000 0.0000
v -0.414760 -0.322558 -0.000000 1.0000 0.0000 0.0000
v -0.642712 0.052969 2.000000 1.0000 0.0000 0.0000
v -0.642896 -0.302574 -0.000000 1.0000 0.0000 0.0000
v -0.642712 0.032955 2.000000 1.0000 0.0000 0.0000
v -0.642896 -0.322558 -0.000000 1.0000 0.0000 0.0000
v -0.642896 -0.322559 1.500000 1.0000 0.0000 0.0000
v -0.642896 -0.322559 1.000000 1.0000 0.0000 0.0000
v -0.642896 -0.322559 0.500000 1.0000 0.0000 0.0000
v -0.405111 0.052969 0.500000 1.0000 0.0000 0.0000
v -0.405111 0.052969 1.000000 1.0000 0.0000 0.0000
v -0.405111 0.052969 1.500000 1.0000 0.0000 0.0000
v -0.590543 -0.302574 1.500000 1.0000 0.0000 0.0000
v -0.590543 -0.302574 1.000000 1.0000 0.0000 0.0000
v -0.590543 -0.302574 0.500000 1.0000 0.0000 0.0000
v -0.642896 -0.302574 1.500000 1.0000 0.0000 0.0000
v -0.642896 -0.302574 1.000000 1.0000 0.0000 0.0000
v -0.642896 -0.302574 0.500000 1.0000 0.0000 0.0000
v -0.414760 -0.302574 1.500000 1.0000 0.0000 0.0000
v -0.414760 -0.302574 1.000000 1.0000 0.0000 0.0000
v -0.414760 -0.302574 0.500000 1.0000 0.0000 0.0000
v -0.466353 -0.052323 0.500000 1.0000 0.0000 0.0000
v -0.466353 -0.052323 1.000000 1.0000 0.0000 0.0000
v -0.466353 -0.052323 1.500000 1.0000 0.0000 0.0000
v -0.642712 0.032955 0.500000 1.0000 0.0000 0.0000
v -0.642712 0.032955 1.000000 1.0000 0.0000 0.0000
v -0.642712 0.032955 1.500000 1.0000 0.0000 0.0000
v -0.414760 -0.322559 1.500000 1.0000 0.0000 0.0000
v -0.414760 -0.322559 1.000000 1.0000 0.0000 0.0000
v -0.414760 -0.322559 0.500000 1.0000 0.0000 0.0000
v -0.642712 0.052969 0.500000 1.0000 0.0000 0.0000
v -0.642712 0.052969 1.000000 1.0000 0.0000 0.0000
v -0.642712 0.052969 1.500000 1.0000 0.0000 0.0000
v -0.590543 0.032955 0.500000 1.0000 0.0000 0.0000
v -0.590543 0.032955 1.000000 1.0000 0.0000 0.0000
v -0.590543 0.032955 1.500000 1.0000 0.0000 0.0000
v -0.466353 -0.302574 1.500000 1.0000 0.0000 0.0000
v -0.466353 -0.302574 1.000000 1.0000 0.0000 0.0000
v -0.466353 -0.302574 0.500000 1.0000 0.0000 0.0000
v -0.405111 -0.052323 0.500000 1.0000 0.0000 0.0000
v -0.405111 -0.052323 1.000000 1.0000 0.0000 0.0000
v -0.405111 -0.052323 1.500000 1.0000 0.0000 0.0000
vn -0.0000 1.0000 -0.0000
vn -1.0000 -0.0000 -0.0000
vn -0.0000 -1.0000 -0.0000
vn 1.0000 -0.0000 -0.0000
vn -0.0000 -0.0000 -1.0000
vn -0.0000 -0.0000 1.0000
vt 0.000000 0.000000
s 0
f 71/21/7 89/21/7 47/21/7 51/21/7
f 78/21/8 38/21/8 39/21/8 69/21/8
f 63/21/7 43/21/7 37/21/7 66/21/7
f 80/21/9 52/21/9 56/21/9 59/21/9
f 87/21/8 40/21/8 45/21/8 74/21/8
f 83/21/10 53/21/10 55/21/10 77/21/10
f 66/21/10 37/21/10 35/21/10 57/21/10
f 86/21/10 49/21/10 43/21/10 63/21/10
f 75/21/9 84/21/9 41/21/9 33/21/9
f 92/21/8 48/21/8 50/21/8 62/21/8
f 81/21/7 34/21/7 36/21/7 60/21/7
f 72/21/9 90/21/9 42/21/9 44/21/9
f 46/21/11 54/21/11 56/21/11 52/21/11 51/21/11 47/21/11 44/21/11 42/21/11 36/21/11 34/21/11 33/21/11 41/21/11
f 35/21/12 37/21/12 43/21/12 49/21/12 55/21/12 53/21/12 50/21/12 48/21/12 45/21/12 40/21/12 39/21/12 38/21/12
f 45/21/9 48/21/9 92/21/9 74/21/9
f 74/21/9 92/21/9 91/21/9 73/21/9
f 73/21/9 91/21/9 90/21/9 72/21/9
f 53/21/7 83/21/7 62/21/7 50/21/7
f 83/21/7 82/21/7 61/21/7 62/21/7
f 82/21/7 81/21/7 60/21/7 61/21/7
f 42/21/8 90/21/8 60/21/8 36/21/8
f 90/21/8 91/21/8 61/21/8 60/21/8
f 91/21/8 92/21/8 62/21/8 61/21/8
f 55/21/9 49/21/9 86/21/9 77/21/9
f 77/21/9 86/21/9 85/21/9 76/21/9
f 76/21/9 85/21/9 84/21/9 75/21/9
f 41/21/10 84/21/10 65/21/10 46/21/10
f 84/21/10 85/21/10 64/21/10 65/21/10
f 85/21/10 86/21/10 63/21/10 64/21/10
f 54/21/10 68/21/10 59/21/10 56/21/10
f 68/21/10 67/21/10 58/21/10 59/21/10
f 67/21/10 66/21/10 57/21/10 58/21/10
f 34/21/10 81/21/10 75/21/10 33/21/10
f 81/21/10 82/21/10 76/21/10 75/21/10
f 82/21/10 83/21/10 77/21/10 76/21/10
f 47/21/8 89/21/8 72/21/8 44/21/8
f 89/21/8 88/21/8 73/21/8 72/21/8
f 88/21/8 87/21/8 74/21/8 73/21/8
f 38/21/9 78/21/9 57/21/9 35/21/9
f 78/21/9 79/21/9 58/21/9 57/21/9
f 79/21/9 80/21/9 59/21/9 58/21/9
f 46/21/7 65/21/7 68/21/7 54/21/7
f 65/21/7 64/21/7 67/21/7 68/21/7
f 64/21/7 63/21/7 66/21/7 67/21/7
f 52/21/8 80/21/8 71/21/8 51/21/8
f 80/21/8 79/21/8 70/21/8 71/21/8
f 79/21/8 78/21/8 69/21/8 70/21/8
f 39/21/7 40/21/7 87/21/7 69/21/7
f 69/21/7 87/21/7 88/21/7 70/21/7
f 70/21/7 88/21/7 89/21/7 71/21/7
f 131/21/7 111/21/7 107/21/7 149/21/7
f 138/21/10 129/21/10 99/21/10 98/21/10
f 123/21/7 126/21/7 97/21/7 103/21/7
f 140/21/9 119/21/9 116/21/9 112/21/9
f 147/21/10 134/21/10 105/21/10 100/21/10
f 143/21/8 137/21/8 115/21/8 113/21/8
f 126/21/8 117/21/8 95/21/8 97/21/8
f 146/21/8 123/21/8 103/21/8 109/21/8
f 135/21/9 93/21/9 101/21/9 144/21/9
f 152/21/10 122/21/10 110/21/10 108/21/10
f 141/21/7 120/21/7 96/21/7 94/21/7
f 132/21/9 104/21/9 102/21/9 150/21/9
f 106/21/11 101/21/11 93/21/11 94/21/11 96/21/11 102/21/11 104/21/11 107/21/11 111/21/11 112/21/11 116/21/11 114/21/11
f 95/21/12 98/21/12 99/21/12 100/21/12 105/21/12 108/21/12 110/21/12 113/21/12 115/21/12 109/21/12 103/21/12 97/21/12
f 105/21/9 134/21/9 152/21/9 108/21/9
f 134/21/9 133/21/9 151/21/9 152/21/9
f 133/21/9 132/21/9 150/21/9 151/21/9
f 113/21/7 110/21/7 122/21/7 143/21/7
f 143/21/7 122/21/7 121/21/7 142/21/7
f 142/21/7 121/21/7 120/21/7 141/21/7
f 102/21/10 96/21/10 120/21/10 150/21/10
f 150/21/10 120/21/10 121/21/10 151/21/10
f 151/21/10 121/21/10 122/21/10 152/21/10
f 115/21/9 137/21/9 146/21/9 109/21/9
f 137/21/9 136/21/9 145/21/9 146/21/9
f 136/21/9 135/21/9 144/21/9 145/21/9
f 101/21/8 106/21/8 125/21/8 144/21/8
f 144/21/8 125/21/8 124/21/8 145/21/8
f 145/21/8 124/21/8 123/21/8 146/21/8
f 114/21/8 116/21/8 119/21/8 128/21/8
f 128/21/8 119/21/8 118/21/8 127/21/8
f 127/21/8 118/21/8 117/21/8 126/21/8
f 94/21/8 93/21/8 135/21/8 141/21/8
f 141/21/8 135/21/8 136/21/8 142/21/8
f 142/21/8 136/21/8 137/21/8 143/21/8
f 107/21/10 104/21/10 132/21/10 149/21/10
f 149/21/10 132/21/10 133/21/10 148/21/10
f 148/21/10 133/21/10 134/21/10 147/21/10
f 98/21/9 95/21/9 117/21/9 138/21/9
f 138/21/9 117/21/9 118/21/9 139/21/9
f 139/21/9 118/21/9 119/21/9 140/21/9
f 106/21/7 114/21/7 128/21/7 125/21/7
f 125/21/7 128/21/7 127/21/7 124/21/7
f 124/21/7 127/21/7 126/21/7 123/21/7
f 112/21/10 111/21/10 131/21/10 140/21/10
f 140/21/10 131/21/10 130/21/10 139/21/10
f 139/21/10 130/21/10 129/21/10 138/21/10
f 99/21/7 129/21/7 147/21/7 100/21/7
f 129/21/7 130/21/7 148/21/7 147/21/7
f 130/21/7 131/21/7 149/21/7 148/21/7
