# Blender 4.4.3
# www.blender.org
o IntaminBlitz_EndTie
v 0.600000 -0.000002 0.006252
v -0.600000 -0.000002 0.006252
v 0.600000 -0.016877 0.010774
v -0.600000 -0.016877 0.010773
v 0.600000 -0.029230 0.023127
v -0.600000 -0.029230 0.023127
v 0.600000 -0.033752 0.040002
v -0.600000 -0.033752 0.040002
v 0.600000 -0.029230 0.056877
v -0.600000 -0.029230 0.056877
v 0.600000 -0.016877 0.069231
v -0.600000 -0.016877 0.069230
v 0.600000 -0.000002 0.073752
v -0.600000 -0.000002 0.073752
v 0.600000 0.016873 0.069231
v -0.600000 0.016873 0.069230
v 0.600000 0.029226 0.056877
v -0.600000 0.029226 0.056877
v 0.600000 0.033748 0.040002
v -0.600000 0.033748 0.040002
v 0.600000 0.029226 0.023127
v -0.600000 0.029226 0.023127
v 0.600000 0.016873 0.010774
v -0.600000 0.016873 0.010773
v -0.570000 -0.060002 0.000002
v -0.570000 0.059998 0.000002
v -0.570000 -0.060002 0.080002
v -0.570000 0.059998 0.080002
v -0.393707 0.050269 0.080002
v -0.384422 0.034498 0.080002
v -0.390154 0.047759 0.080002
v -0.387142 0.043881 0.080002
v -0.385130 0.039224 0.080002
v -0.384422 0.034498 0.000002
v -0.393707 0.050269 0.000002
v -0.385130 0.039224 0.000002
v -0.387142 0.043881 0.000002
v -0.390154 0.047759 0.000002
v -0.393707 -0.050273 0.000002
v -0.384422 -0.034502 0.000002
v -0.390154 -0.047763 0.000002
v -0.387142 -0.043885 0.000002
v -0.385130 -0.039228 0.000002
v -0.384422 -0.034502 0.080002
v -0.393707 -0.050273 0.080002
v -0.385130 -0.039228 0.080002
v -0.387142 -0.043885 0.080002
v -0.390154 -0.047763 0.080002
v -0.474422 -0.070002 0.000002
v -0.445496 -0.064431 0.000002
v -0.465057 -0.069256 0.000002
v -0.454468 -0.067217 0.000002
v -0.445496 -0.064431 0.080002
v -0.474422 -0.070002 0.080002
v -0.454468 -0.067217 0.080002
v -0.465057 -0.069256 0.080002
v -0.474422 0.069998 0.080002
v -0.445496 0.064427 0.080002
v -0.465057 0.069252 0.080002
v -0.454468 0.067212 0.080002
v -0.445496 0.064427 0.000002
v -0.474422 0.069998 0.000002
v -0.454468 0.067213 0.000002
v -0.465057 0.069252 0.000002
v -0.535000 0.069998 0.000002
v -0.563416 0.063290 0.000002
v -0.544298 0.069099 0.000002
v -0.554699 0.066644 0.000002
v -0.563416 0.063290 0.080002
v -0.535000 0.069998 0.080002
v -0.554699 0.066644 0.080002
v -0.544298 0.069099 0.080002
v -0.535000 -0.070002 0.080002
v -0.563416 -0.063294 0.080002
v -0.544298 -0.069103 0.080002
v -0.554699 -0.066648 0.080002
v -0.563416 -0.063294 0.000002
v -0.535000 -0.070002 0.000002
v -0.554699 -0.066648 0.000002
v -0.544298 -0.069103 0.000002
v 0.570000 0.059998 0.000002
v 0.570000 -0.060002 0.000002
v 0.570000 0.059998 0.080002
v 0.570000 -0.060002 0.080002
v 0.393707 -0.050273 0.080002
v 0.384422 -0.034502 0.080002
v 0.390154 -0.047763 0.080002
v 0.387142 -0.043885 0.080002
v 0.385130 -0.039228 0.080002
v 0.384422 -0.034502 0.000002
v 0.393707 -0.050273 0.000002
v 0.385130 -0.039228 0.000002
v 0.387142 -0.043885 0.000002
v 0.390154 -0.047763 0.000002
v 0.393707 0.050269 0.000002
v 0.384422 0.034498 0.000002
v 0.390154 0.047759 0.000002
v 0.387142 0.043881 0.000002
v 0.385130 0.039224 0.000002
v 0.384422 0.034498 0.080002
v 0.393707 0.050269 0.080002
v 0.385130 0.039224 0.080002
v 0.387142 0.043881 0.080002
v 0.390154 0.047759 0.080002
v 0.474422 0.069998 0.000002
v 0.445496 0.064427 0.000002
v 0.465057 0.069252 0.000002
v 0.454468 0.067213 0.000002
v 0.445496 0.064427 0.080002
v 0.474422 0.069998 0.080002
v 0.454468 0.067213 0.080002
v 0.465057 0.069252 0.080002
v 0.474422 -0.070002 0.080002
v 0.445496 -0.064431 0.080002
v 0.465057 -0.069256 0.080002
v 0.454468 -0.067216 0.080002
v 0.445496 -0.064431 0.000002
v 0.474422 -0.070002 0.000002
v 0.454468 -0.067217 0.000002
v 0.465055 -0.069256 0.000002
v 0.535000 -0.070002 0.000002
v 0.563416 -0.063294 0.000002
v 0.544296 -0.069103 0.000002
v 0.554699 -0.066648 0.000002
v 0.563416 -0.063294 0.080002
v 0.535000 -0.070002 0.080002
v 0.554699 -0.066648 0.080002
v 0.544296 -0.069103 0.080002
v 0.535000 0.069998 0.080002
v 0.563416 0.063290 0.080002
v 0.544296 0.069099 0.080002
v 0.554699 0.066644 0.080002
v 0.563416 0.063290 0.000002
v 0.535000 0.069998 0.000002
v 0.554699 0.066644 0.000002
v 0.544296 0.069099 0.000002
v 0.600000 -0.000002 0.006252
v 0.600000 -0.016877 0.010774
v 0.600000 -0.016877 0.010774
v 0.600000 -0.029230 0.056877
v 0.600000 -0.016877 0.069231
v 0.600000 -0.016877 0.069231
v 0.600000 0.029226 0.056877
v 0.600000 0.033748 0.040002
v 0.600000 0.033748 0.040002
v 0.600000 0.016873 0.010774
v 0.600000 0.016873 0.010774
v -0.570000 -0.060002 0.000002
v -0.570000 -0.060002 0.000002
v -0.570000 -0.060002 0.080002
v -0.570000 -0.060002 0.080002
v -0.570000 0.059998 0.000002
v -0.570000 0.059998 0.000002
v -0.474422 -0.070002 0.000002
v -0.535000 -0.070002 0.000002
v -0.474422 0.069998 0.080002
v -0.535000 0.069998 0.080002
v -0.563416 -0.063294 0.000002
v -0.465057 0.069252 0.080002
v -0.535000 -0.070002 0.080002
v -0.544298 -0.069103 0.080002
v -0.390154 -0.047763 0.000002
v -0.387142 -0.043885 0.000002
v -0.465057 -0.069256 0.000002
v -0.535000 0.069998 0.000002
v -0.544298 0.069099 0.000002
v 0.570000 0.059998 0.000002
v 0.570000 0.059998 0.000002
v 0.570000 0.059998 0.080002
v 0.570000 0.059998 0.080002
v 0.570000 -0.060002 0.000002
v 0.570000 -0.060002 0.000002
v 0.474422 0.069998 0.000002
v 0.535000 0.069998 0.000002
v 0.474422 -0.070002 0.080002
v 0.535000 -0.070002 0.080002
v 0.563416 0.063290 0.000002
v 0.465057 -0.069256 0.080002
v 0.535000 0.069998 0.080002
v 0.544296 0.069099 0.080002
v 0.390154 0.047759 0.000002
v 0.387142 0.043881 0.000002
v 0.465057 0.069252 0.000002
v 0.535000 -0.070002 0.000002
v 0.544296 -0.069103 0.000002
v -0.600000 -0.000002 0.006252
v -0.600000 -0.016877 0.010773
v -0.600000 -0.016877 0.010773
v -0.600000 -0.029230 0.056877
v -0.600000 -0.016877 0.069230
v -0.600000 -0.016877 0.069230
v -0.600000 0.029226 0.056877
v -0.600000 0.033748 0.040002
v -0.600000 0.033748 0.040002
v -0.600000 0.016873 0.010773
v -0.600000 0.016873 0.010773
v -0.570000 0.059998 0.080002
v -0.570000 0.059998 0.080002
v -0.384422 0.034498 0.000002
v -0.384422 -0.034502 0.000002
v -0.445496 0.064427 0.080002
v -0.454468 0.067212 0.080002
v -0.563416 -0.063294 0.080002
v -0.554699 -0.066648 0.080002
v -0.385130 -0.039228 0.000002
v -0.385130 0.039224 0.000002
v -0.445496 -0.064431 0.000002
v -0.454468 -0.067217 0.000002
v -0.563416 0.063290 0.000002
v -0.554699 0.066644 0.000002
v 0.570000 -0.060002 0.080002
v 0.570000 -0.060002 0.080002
v 0.384422 -0.034502 0.000002
v 0.384422 0.034498 0.000002
v 0.445496 -0.064431 0.080002
v 0.454468 -0.067216 0.080002
v 0.563416 0.063290 0.080002
v 0.554699 0.066644 0.080002
v 0.385130 0.039224 0.000002
v 0.385130 -0.039228 0.000002
v 0.445496 0.064427 0.000002
v 0.454468 0.067213 0.000002
v 0.563416 -0.063294 0.000002
v 0.554699 -0.066648 0.000002
v 0.600000 -0.029230 0.023127
v 0.600000 -0.000002 0.073752
v 0.600000 0.029226 0.023127
v -0.393707 0.050269 0.000002
v -0.445496 0.064427 0.000002
v -0.390154 0.047759 0.000002
v 0.393707 -0.050273 0.000002
v 0.445496 -0.064431 0.000002
v 0.390154 -0.047763 0.000002
v -0.600000 -0.029230 0.023127
v -0.600000 -0.000002 0.073752
v -0.600000 0.029226 0.023127
v -0.563416 0.063290 0.080002
v -0.384422 -0.034502 0.080002
v -0.385130 -0.039228 0.080002
v -0.387142 0.043881 0.000002
v 0.563416 -0.063294 0.080002
v 0.384422 0.034498 0.080002
v 0.385130 0.039224 0.080002
v 0.387142 -0.043885 0.000002
v 0.600000 -0.033752 0.040002
v 0.600000 -0.033752 0.040002
v 0.600000 0.016873 0.069231
v 0.600000 0.016873 0.069231
v -0.393707 0.050269 0.080002
v -0.393707 -0.050273 0.080002
v -0.445496 -0.064431 0.080002
v -0.554699 0.066644 0.080002
v -0.390154 0.047759 0.080002
v -0.390154 -0.047763 0.080002
v -0.454468 -0.067217 0.080002
v -0.454468 0.067213 0.000002
v -0.554699 -0.066648 0.000002
v 0.393707 -0.050273 0.080002
v 0.393707 0.050269 0.080002
v 0.445496 0.064427 0.080002
v 0.554699 -0.066648 0.080002
v 0.390154 -0.047763 0.080002
v 0.390154 0.047759 0.080002
v 0.454468 0.067213 0.080002
v 0.454468 -0.067217 0.000002
v 0.554699 0.066644 0.000002
v -0.600000 -0.033752 0.040002
v -0.600000 -0.033752 0.040002
v -0.600000 0.016873 0.069230
v -0.600000 0.016873 0.069230
v -0.384422 0.034498 0.080002
v -0.474422 -0.070002 0.080002
v -0.474422 0.069998 0.000002
v -0.544298 0.069099 0.080002
v -0.385130 0.039224 0.080002
v -0.387142 -0.043885 0.080002
v -0.465057 -0.069256 0.080002
v -0.465057 0.069252 0.000002
v -0.544298 -0.069103 0.000002
v 0.384422 -0.034502 0.080002
v 0.474422 0.069998 0.080002
v 0.474422 -0.070002 0.000002
v 0.544296 -0.069103 0.080002
v 0.385130 -0.039228 0.080002
v 0.387142 0.043881 0.080002
v 0.465057 0.069252 0.080002
v 0.465055 -0.069256 0.000002
v 0.544296 0.069099 0.000002
v -0.393707 -0.050273 0.000002
v -0.387142 0.043881 0.080002
v 0.393707 0.050269 0.000002
v 0.387142 -0.043885 0.080002
vn -0.0000 -0.2588 -0.9659
vn -0.0000 -0.0000 -1.0000
vn -0.0000 -0.8660 -0.5000
vn -0.0000 -0.7071 -0.7071
vn -0.0000 -0.9659 -0.2588
vn -0.0000 -0.8660 0.5000
vn -0.0000 -0.9659 0.2588
vn -0.0000 -0.7071 0.7071
vn -0.0000 -0.0000 1.0000
vn -0.0000 -0.2588 0.9659
vn -0.0000 0.2588 0.9659
vn -0.0000 0.8660 0.5000
vn -0.0000 0.7071 0.7071
vn -0.0000 0.9659 0.2588
vn -0.0000 0.8660 -0.5000
vn -0.0000 0.9659 -0.2588
vn -1.0000 -0.0000 -0.0000
vn -0.0000 0.7071 -0.7071
vn -0.0000 0.2588 -0.9659
vn 1.0000 -0.0000 -0.0000
vn 0.9972 -0.0742 -0.0000
vn 0.9972 0.0742 -0.0000
vn -0.0482 -0.9988 -0.0000
vn 0.0397 -0.9992 -0.0000
vn 0.0397 0.9992 -0.0000
vn -0.0482 0.9988 -0.0000
vn 0.4268 0.9044 -0.0000
vn 0.2801 0.9600 -0.0000
vn 0.2802 -0.9600 -0.0000
vn 0.4268 -0.9044 -0.0000
vn -0.4036 -0.9149 -0.0000
vn -0.4472 -0.8944 -0.0000
vn 0.9615 -0.2747 -0.0000
vn 0.8607 -0.5091 -0.0000
vn 0.6909 -0.7229 -0.0000
vn 0.6909 -0.7230 -0.0000
vn 0.6909 0.7230 -0.0000
vn 0.8607 0.5091 -0.0000
vn 0.6909 0.7229 -0.0000
vn 0.9615 0.2747 -0.0000
vn 0.1344 -0.9909 -0.0000
vn 0.2432 -0.9700 -0.0000
vn 0.1345 0.9909 -0.0000
vn 0.2432 0.9700 -0.0000
vn 0.2802 0.9600 -0.0000
vn -0.4036 0.9149 -0.0000
vn -0.4472 0.8944 -0.0000
vn -0.1634 -0.9866 -0.0000
vn -0.2951 -0.9555 -0.0000
vn -0.2951 0.9555 -0.0000
vn -0.1634 0.9866 -0.0000
vn -0.9972 0.0742 -0.0000
vn -0.9972 -0.0742 -0.0000
vn 0.0482 0.9988 -0.0000
vn -0.0397 0.9992 -0.0000
vn -0.0397 -0.9992 -0.0000
vn 0.0482 -0.9988 -0.0000
vn -0.4268 -0.9044 -0.0000
vn -0.2801 -0.9600 -0.0000
vn -0.2802 0.9600 -0.0000
vn -0.4268 0.9044 -0.0000
vn 0.4036 0.9149 -0.0000
vn 0.4472 0.8944 -0.0000
vn -0.9615 0.2747 -0.0000
vn -0.8607 0.5091 -0.0000
vn -0.6909 0.7229 -0.0000
vn -0.6909 0.7230 -0.0000
vn -0.6909 -0.7230 -0.0000
vn -0.8607 -0.5091 -0.0000
vn -0.6909 -0.7229 -0.0000
vn -0.9615 -0.2747 -0.0000
vn -0.1344 0.9909 -0.0000
vn -0.2432 0.9700 -0.0000
vn -0.1345 -0.9909 -0.0000
vn -0.2432 -0.9700 -0.0000
vn -0.2802 -0.9600 -0.0000
vn 0.4036 -0.9149 -0.0000
vn 0.4472 -0.8944 -0.0000
vn 0.1633 0.9866 -0.0000
vn 0.2951 0.9555 -0.0000
vn 0.2951 -0.9555 -0.0000
vn 0.1633 -0.9866 -0.0000
vt 0.916667 0.500000
vt 1.000000 1.000000
vt 1.000000 0.500000
vt 0.833333 0.500000
vt 0.916667 1.000000
vt 0.750000 0.500000
vt 0.833333 1.000000
vt 0.666667 0.500000
vt 0.750000 1.000000
vt 0.583333 0.500000
vt 0.666667 1.000000
vt 0.500000 0.500000
vt 0.583333 1.000000
vt 0.416667 1.000000
vt 0.500000 1.000000
vt 0.333333 0.500000
vt 0.416667 0.500000
vt 0.250000 0.500000
vt 0.333333 1.000000
vt 0.166667 0.500000
vt 0.250000 1.000000
vt 0.457846 0.130000
vt 0.042154 0.130000
vt 0.250000 0.490000
vt 0.083333 0.500000
vt 0.166667 1.000000
vt 0.000000 0.500000
vt 0.083333 1.000000
vt 0.510000 0.250000
vt 0.870000 0.042154
vt 0.870000 0.457846
vt 0.375000 0.250000
vt 0.625000 0.000000
vt 0.375000 0.000000
vt 0.410156 0.750000
vt 0.433594 0.500000
vt 0.410156 0.500000
vt 0.375000 0.850000
vt 0.375000 0.475000
vt 0.375000 0.400000
vt 0.525000 0.750000
vt 0.600000 0.500000
vt 0.525000 0.500000
vt 0.445237 0.750000
vt 0.488394 0.500000
vt 0.445237 0.500000
vt 0.380803 0.750000
vt 0.402381 0.500000
vt 0.380803 0.500000
vt 0.375000 0.291148
vt 0.375000 1.000000
vt 0.375000 0.958853
vt 0.404155 0.499863
vt 0.408609 0.499866
vt 0.406557 0.499657
vt 0.408609 0.750134
vt 0.406557 0.750343
vt 0.404155 0.750137
vt 0.441977 0.499858
vt 0.437735 0.499647
vt 0.441977 0.750142
vt 0.435304 0.499863
vt 0.437735 0.750354
vt 0.435304 0.750137
vt 0.375287 0.759625
vt 0.375000 0.775000
vt 0.377442 0.750303
vt 0.375287 0.490375
vt 0.377442 0.499697
vt 0.509190 0.499690
vt 0.495567 0.499722
vt 0.509190 0.750310
vt 0.488394 0.750000
vt 0.495567 0.750278
vt 0.792705 0.750000
vt 0.875000 0.500000
vt 0.792705 0.500000
vt 0.375356 0.383996
vt 0.375355 0.343085
vt 0.375356 0.866004
vt 0.375355 0.906915
vt 0.688756 0.500000
vt 0.615496 0.500000
vt 0.688756 0.750000
vt 0.615496 0.750000
vt 0.433594 0.750000
vt 0.402381 0.750000
vt 0.370000 0.457846
vt 0.457846 0.370000
vt 0.490000 0.250000
vt 0.370000 0.042154
vt 0.250000 0.010000
vt 0.130000 0.042154
vt 0.010000 0.250000
vt 0.042154 0.370000
vt 0.130000 0.457846
vt 0.000000 1.000000
vt 0.750000 0.490000
vt 0.630000 0.457846
vt 0.542154 0.370000
vt 0.542154 0.130000
vt 0.630000 0.042154
vt 0.750000 0.010000
vt 0.957846 0.130000
vt 0.990000 0.250000
vt 0.957846 0.370000
vt 0.625000 0.250000
vt 0.600000 0.750000
vt 0.625000 0.332295
vt 0.614117 0.496062
vt 0.623200 0.434279
vt 0.875000 0.750000
vt 0.625000 1.000000
vt 0.625000 0.917705
vt 0.623199 0.815721
vt 0.614117 0.753938
s 1
f 138/1/1 186/2/2 137/3/2
f 225/4/3 188/5/4 139/1/4
f 245/6/5 234/7/3 225/4/3
f 140/8/6 268/9/7 246/6/7
f 141/10/8 189/11/6 140/8/6
f 226/12/9 191/13/10 142/10/10
f 226/12/9 269/14/11 235/15/9
f 143/16/12 270/14/13 248/17/13
f 144/18/14 192/19/12 143/16/12
f 227/20/15 194/21/16 145/18/16
f 10/22/17 18/23/17 2/24/17
f 147/25/18 236/26/15 227/20/15
f 137/27/2 24/28/19 146/25/19
f 19/29/20 11/30/20 3/31/20
f 150/32/17 152/33/17 148/34/17
f 200/35/21 271/36/22 44/37/21
f 155/38/23 272/39/24 160/40/23
f 273/41/25 157/42/26 156/43/25
f 228/44/27 201/45/28 249/46/27
f 207/47/29 250/48/30 251/49/29
f 203/50/31 149/51/32 158/52/31
f 48/53/9 30/36/9 58/45/9
f 239/54/33 200/35/21 44/37/21
f 276/55/34 205/56/33 239/54/33
f 254/53/35 163/57/34 276/55/34
f 250/48/30 162/58/36 254/53/35
f 31/59/37 228/44/27 249/46/27
f 32/60/38 230/61/39 31/59/37
f 275/62/40 240/63/38 32/60/38
f 271/36/22 206/64/40 275/62/40
f 164/65/41 272/39/24 154/66/24
f 208/67/42 277/68/41 164/65/41
f 207/47/29 255/69/42 208/67/42
f 59/70/43 273/41/25 156/43/25
f 60/71/44 278/72/43 59/70/43
f 60/71/44 229/73/45 256/74/44
f 209/75/46 28/76/47 237/77/46
f 75/78/48 155/38/23 160/40/23
f 76/79/49 279/80/48 75/78/48
f 203/50/31 257/81/49 76/79/49
f 252/82/50 209/75/46 237/77/46
f 274/83/51 210/84/50 252/82/50
f 157/42/26 166/85/51 274/83/51
f 61/73/2 34/86/2 51/65/2
f 169/32/20 171/33/20 167/34/20
f 214/35/52 280/36/53 100/37/52
f 174/38/54 281/39/55 179/40/54
f 282/41/56 176/42/57 175/43/56
f 231/44/58 215/45/59 258/46/58
f 260/49/60 291/87/61 259/48/61
f 217/50/62 168/51/63 177/52/62
f 104/53/9 86/36/9 114/45/9
f 243/54/64 214/35/52 100/37/52
f 285/55/65 219/56/64 243/54/64
f 263/53/66 182/57/65 285/55/65
f 259/48/61 181/58/67 263/53/66
f 87/59/68 231/44/58 258/46/58
f 88/60/69 233/61/70 87/59/68
f 284/62/71 244/63/69 88/60/69
f 280/36/53 220/64/71 284/62/71
f 183/65/72 281/39/55 173/66/55
f 222/67/73 286/68/72 183/65/72
f 221/47/60 264/69/73 222/67/73
f 115/70/74 282/41/56 175/43/56
f 116/71/75 287/72/74 115/70/74
f 116/71/75 232/73/76 265/74/75
f 223/75/77 84/76/78 241/77/77
f 131/78/79 174/38/54 179/40/54
f 132/79/80 288/80/79 131/78/79
f 217/50/62 266/81/80 132/79/80
f 261/82/81 223/75/77 241/77/77
f 283/83/82 224/84/81 261/82/81
f 176/42/57 185/85/82 283/83/82
f 117/73/2 90/86/2 107/65/2
f 138/1/1 187/5/1 186/2/2
f 225/4/3 234/7/3 188/5/4
f 245/6/5 267/9/5 234/7/3
f 140/8/6 189/11/6 268/9/7
f 141/10/8 190/13/8 189/11/6
f 226/12/9 235/15/9 191/13/10
f 226/12/9 247/17/11 269/14/11
f 143/16/12 192/19/12 270/14/13
f 144/18/14 193/21/14 192/19/12
f 227/20/15 236/26/15 194/21/16
f 2/24/17 4/88/17 6/89/17
f 6/89/17 8/90/17 10/22/17
f 10/22/17 12/91/17 14/92/17
f 14/92/17 16/93/17 18/23/17
f 18/23/17 20/94/17 22/95/17
f 22/95/17 195/96/17 2/24/17
f 2/24/17 6/89/17 10/22/17
f 10/22/17 14/92/17 18/23/17
f 18/23/17 22/95/17 2/24/17
f 147/25/18 196/28/18 236/26/15
f 137/27/2 186/97/2 24/28/19
f 3/31/20 1/98/20 23/99/20
f 23/99/20 21/100/20 19/29/20
f 19/29/20 17/101/20 15/102/20
f 15/102/20 13/103/20 11/30/20
f 11/30/20 9/104/20 7/105/20
f 7/105/20 5/106/20 3/31/20
f 3/31/20 23/99/20 19/29/20
f 19/29/20 15/102/20 11/30/20
f 11/30/20 7/105/20 3/31/20
f 150/32/17 197/107/17 152/33/17
f 200/35/21 199/86/22 271/36/22
f 155/38/23 154/66/24 272/39/24
f 273/41/25 165/108/26 157/42/26
f 228/44/27 229/73/45 201/45/28
f 207/47/29 289/87/30 250/48/30
f 203/50/31 151/32/32 149/51/32
f 198/107/9 27/32/9 74/50/9
f 74/50/9 204/79/9 161/78/9
f 161/78/9 73/40/9 54/39/9
f 54/39/9 56/68/9 55/69/9
f 53/49/9 45/48/9 48/53/9
f 54/39/9 55/69/9 53/49/9
f 74/50/9 161/78/9 54/39/9
f 69/109/9 198/107/9 74/50/9
f 72/110/9 71/111/9 69/109/9
f 57/43/9 70/42/9 72/110/9
f 202/71/9 159/70/9 57/43/9
f 253/59/9 29/46/9 58/45/9
f 58/45/9 202/71/9 57/43/9
f 57/43/9 72/110/9 69/109/9
f 69/109/9 74/50/9 54/39/9
f 54/39/9 53/49/9 48/53/9
f 48/53/9 47/55/9 46/54/9
f 46/54/9 238/37/9 30/36/9
f 30/36/9 33/62/9 290/60/9
f 290/60/9 253/59/9 58/45/9
f 58/45/9 57/43/9 69/109/9
f 69/109/9 54/39/9 48/53/9
f 48/53/9 46/54/9 30/36/9
f 30/36/9 290/60/9 58/45/9
f 58/45/9 69/109/9 48/53/9
f 239/54/33 205/56/33 200/35/21
f 276/55/34 163/57/34 205/56/33
f 254/53/35 162/58/36 163/57/34
f 250/48/30 289/87/30 162/58/36
f 31/59/37 230/61/39 228/44/27
f 32/60/38 240/63/38 230/61/39
f 275/62/40 206/64/40 240/63/38
f 271/36/22 199/86/22 206/64/40
f 164/65/41 277/68/41 272/39/24
f 208/67/42 255/69/42 277/68/41
f 207/47/29 251/49/29 255/69/42
f 59/70/43 278/72/43 273/41/25
f 60/71/44 256/74/44 278/72/43
f 60/71/44 201/45/28 229/73/45
f 209/75/46 153/112/47 28/76/47
f 75/78/48 279/80/48 155/38/23
f 76/79/49 257/81/49 279/80/48
f 203/50/31 158/52/31 257/81/49
f 252/82/50 210/84/50 209/75/46
f 274/83/51 166/85/51 210/84/50
f 157/42/26 165/108/26 166/85/51
f 51/65/2 49/66/2 78/38/2
f 78/38/2 80/80/2 79/81/2
f 79/81/2 77/52/2 25/51/2
f 25/51/2 26/113/2 66/114/2
f 66/114/2 68/115/2 67/116/2
f 67/116/2 65/108/2 62/41/2
f 62/41/2 64/72/2 63/74/2
f 61/73/2 35/44/2 38/61/2
f 62/41/2 63/74/2 61/73/2
f 66/114/2 67/116/2 62/41/2
f 79/81/2 25/51/2 66/114/2
f 51/65/2 78/38/2 79/81/2
f 50/47/2 52/67/2 51/65/2
f 41/58/2 39/87/2 50/47/2
f 43/56/2 42/57/2 41/58/2
f 34/86/2 40/35/2 43/56/2
f 37/63/2 36/64/2 34/86/2
f 61/73/2 38/61/2 37/63/2
f 66/114/2 62/41/2 61/73/2
f 51/65/2 79/81/2 66/114/2
f 41/58/2 50/47/2 51/65/2
f 34/86/2 43/56/2 41/58/2
f 61/73/2 37/63/2 34/86/2
f 51/65/2 66/114/2 61/73/2
f 34/86/2 41/58/2 51/65/2
f 169/32/20 211/107/20 171/33/20
f 214/35/52 213/86/53 280/36/53
f 174/38/54 173/66/55 281/39/55
f 282/41/56 184/108/57 176/42/57
f 231/44/58 232/73/76 215/45/59
f 260/49/60 221/47/60 291/87/61
f 217/50/62 170/32/63 168/51/63
f 212/107/9 83/32/9 130/50/9
f 130/50/9 218/79/9 180/78/9
f 180/78/9 129/40/9 110/39/9
f 110/39/9 112/68/9 111/69/9
f 109/49/9 101/48/9 104/53/9
f 110/39/9 111/69/9 109/49/9
f 130/50/9 180/78/9 110/39/9
f 125/109/9 212/107/9 130/50/9
f 128/110/9 127/111/9 125/109/9
f 113/43/9 126/42/9 128/110/9
f 216/71/9 178/70/9 113/43/9
f 262/59/9 85/46/9 114/45/9
f 114/45/9 216/71/9 113/43/9
f 113/43/9 128/110/9 125/109/9
f 125/109/9 130/50/9 110/39/9
f 110/39/9 109/49/9 104/53/9
f 104/53/9 103/55/9 102/54/9
f 102/54/9 242/37/9 86/36/9
f 86/36/9 89/62/9 292/60/9
f 292/60/9 262/59/9 114/45/9
f 114/45/9 113/43/9 125/109/9
f 125/109/9 110/39/9 104/53/9
f 104/53/9 102/54/9 86/36/9
f 86/36/9 292/60/9 114/45/9
f 114/45/9 125/109/9 104/53/9
f 243/54/64 219/56/64 214/35/52
f 285/55/65 182/57/65 219/56/64
f 263/53/66 181/58/67 182/57/65
f 259/48/61 291/87/61 181/58/67
f 87/59/68 233/61/70 231/44/58
f 88/60/69 244/63/69 233/61/70
f 284/62/71 220/64/71 244/63/69
f 280/36/53 213/86/53 220/64/71
f 183/65/72 286/68/72 281/39/55
f 222/67/73 264/69/73 286/68/72
f 221/47/60 260/49/60 264/69/73
f 115/70/74 287/72/74 282/41/56
f 116/71/75 265/74/75 287/72/74
f 116/71/75 215/45/59 232/73/76
f 223/75/77 172/112/78 84/76/78
f 131/78/79 288/80/79 174/38/54
f 132/79/80 266/81/80 288/80/79
f 217/50/62 177/52/62 266/81/80
f 261/82/81 224/84/81 223/75/77
f 283/83/82 185/85/82 224/84/81
f 176/42/57 184/108/57 185/85/82
f 107/65/2 105/66/2 134/38/2
f 134/38/2 136/80/2 135/81/2
f 135/81/2 133/52/2 81/51/2
f 81/51/2 82/113/2 122/114/2
f 122/114/2 124/115/2 123/116/2
f 123/116/2 121/108/2 118/41/2
f 118/41/2 120/72/2 119/74/2
f 117/73/2 91/44/2 94/61/2
f 118/41/2 119/74/2 117/73/2
f 122/114/2 123/116/2 118/41/2
f 135/81/2 81/51/2 122/114/2
f 107/65/2 134/38/2 135/81/2
f 106/47/2 108/67/2 107/65/2
f 97/58/2 95/87/2 106/47/2
f 99/56/2 98/57/2 97/58/2
f 90/86/2 96/35/2 99/56/2
f 93/63/2 92/64/2 90/86/2
f 117/73/2 94/61/2 93/63/2
f 122/114/2 118/41/2 117/73/2
f 107/65/2 135/81/2 122/114/2
f 97/58/2 106/47/2 107/65/2
f 90/86/2 99/56/2 97/58/2
f 117/73/2 93/63/2 90/86/2
f 107/65/2 122/114/2 117/73/2
f 90/86/2 97/58/2 107/65/2
