# Blender 4.4.3
# www.blender.org
o IntaminBlitzTie_Dense
v 0.000000 -1.125000 -0.200000
v 0.000000 -0.625000 -0.200000
v -0.061804 -1.125000 -0.190211
v -0.061804 -0.625000 -0.190211
v -0.117558 -1.125000 -0.161803
v -0.117558 -0.625000 -0.161803
v -0.161803 -1.125000 -0.117557
v -0.161803 -0.625000 -0.117557
v -0.190211 -1.125000 -0.061803
v -0.190211 -0.625000 -0.061803
v -0.200000 -1.125000 0.000000
v -0.200000 -0.625000 0.000000
v -0.190211 -1.125000 0.061803
v -0.190211 -0.625000 0.061803
v -0.161803 -1.125000 0.117557
v -0.161803 -0.625000 0.117557
v -0.117558 -1.125000 0.161803
v -0.117558 -0.625000 0.161803
v -0.061804 -1.125000 0.190211
v -0.061804 -0.625000 0.190211
v 0.000000 -1.125000 0.200000
v 0.000000 -0.625000 0.200000
v 0.061804 -1.125000 0.190211
v 0.061804 -0.625000 0.190211
v 0.117558 -1.125000 0.161803
v 0.117558 -0.625000 0.161803
v 0.161803 -1.125000 0.117557
v 0.161803 -0.625000 0.117557
v 0.190211 -1.125000 0.061803
v 0.190211 -0.625000 0.061803
v 0.200000 -1.125000 0.000000
v 0.200000 -0.625000 0.000000
v 0.190211 -1.125000 -0.061803
v 0.190211 -0.625000 -0.061803
v 0.161803 -1.125000 -0.117557
v 0.161803 -0.625000 -0.117557
v 0.117558 -1.125000 -0.161803
v 0.117558 -0.625000 -0.161803
v 0.061804 -1.125000 -0.190211
v 0.061804 -0.625000 -0.190211
v 0.000000 -1.125000 -0.200000
v -0.061804 -1.125000 -0.190211
v -0.190211 -1.125000 -0.061803
v -0.200000 -1.125000 0.000000
v -0.117558 -1.125000 0.161803
v -0.061804 -1.125000 0.190211
v 0.117558 -1.125000 0.161803
v 0.161803 -1.125000 0.117557
v 0.190211 -1.125000 -0.061803
v 0.161803 -1.125000 -0.117557
v 0.061804 -1.125000 -0.190211
v 0.000000 -0.625000 -0.200000
v -0.061804 -0.625000 -0.190211
v -0.190211 -0.625000 -0.061803
v -0.200000 -0.625000 0.000000
v -0.117558 -0.625000 0.161803
v -0.061804 -0.625000 0.190211
v 0.117558 -0.625000 0.161803
v 0.161803 -0.625000 0.117557
v 0.190211 -0.625000 -0.061803
v 0.161803 -0.625000 -0.117557
v 0.061804 -0.625000 -0.190211
v -0.117558 -1.125000 -0.161803
v -0.190211 -1.125000 0.061803
v 0.000000 -1.125000 0.200000
v 0.190211 -1.125000 0.061803
v 0.117558 -1.125000 -0.161803
v -0.117558 -0.625000 -0.161803
v -0.190211 -0.625000 0.061803
v 0.000000 -0.625000 0.200000
v 0.190211 -0.625000 0.061803
v 0.117558 -0.625000 -0.161803
v -0.161803 -1.125000 -0.117557
v -0.161803 -1.125000 0.117557
v 0.061804 -1.125000 0.190211
v 0.200000 -1.125000 0.000000
v -0.161803 -0.625000 -0.117557
v -0.161803 -0.625000 0.117557
v 0.061804 -0.625000 0.190211
v 0.200000 -0.625000 0.000000
vn -0.3090 -0.0000 -0.9511
vn -0.0000 -0.0000 -1.0000
vn -0.5878 -0.0000 -0.8090
vn -0.8090 -0.0000 -0.5878
vn -0.9511 -0.0000 -0.3090
vn -1.0000 -0.0000 -0.0000
vn -0.9511 -0.0000 0.3090
vn -0.8090 -0.0000 0.5878
vn -0.5878 -0.0000 0.8090
vn -0.3090 -0.0000 0.9511
vn -0.0000 -0.0000 1.0000
vn 0.3090 -0.0000 0.9511
vn 0.5878 -0.0000 0.8090
vn 0.8090 -0.0000 0.5878
vn 0.9511 -0.0000 0.3090
vn 1.0000 -0.0000 -0.0000
vn 0.9511 -0.0000 -0.3090
vn 0.8090 -0.0000 -0.5878
vn 0.5878 -0.0000 -0.8090
vn -0.0000 1.0000 -0.0000
vn 0.3090 -0.0000 -0.9511
vn -0.0000 -1.0000 -0.0000
vt 0.950000 0.500000
vt 1.000000 1.000000
vt 1.000000 0.500000
vt 0.900000 1.000000
vt 0.950000 1.000000
vt 0.850000 0.500000
vt 0.900000 0.500000
vt 0.800000 0.500000
vt 0.850000 1.000000
vt 0.750000 0.500000
vt 0.800000 1.000000
vt 0.700000 0.500000
vt 0.750000 1.000000
vt 0.650000 0.500000
vt 0.700000 1.000000
vt 0.600000 0.500000
vt 0.650000 1.000000
vt 0.550000 0.500000
vt 0.600000 1.000000
vt 0.500000 0.500000
vt 0.550000 1.000000
vt 0.450000 0.500000
vt 0.500000 1.000000
vt 0.400000 0.500000
vt 0.450000 1.000000
vt 0.350000 0.500000
vt 0.400000 1.000000
vt 0.300000 0.500000
vt 0.350000 1.000000
vt 0.250000 0.500000
vt 0.300000 1.000000
vt 0.200000 0.500000
vt 0.250000 1.000000
vt 0.150000 0.500000
vt 0.200000 1.000000
vt 0.100000 0.500000
vt 0.150000 1.000000
vt 0.391069 0.055836
vt 0.021746 0.324164
vt 0.250000 0.490000
vt 0.050000 0.500000
vt 0.100000 1.000000
vt -0.000000 0.500000
vt 0.050000 1.000000
vt 0.555836 0.108932
vt 0.990000 0.250000
vt 0.824165 0.478254
vt 0.324165 0.478254
vt 0.391069 0.444164
vt 0.444164 0.391068
vt 0.478254 0.324164
vt 0.490000 0.250000
vt 0.478254 0.175836
vt 0.444164 0.108932
vt 0.324165 0.021746
vt 0.250000 0.010000
vt 0.175835 0.021746
vt 0.108931 0.055836
vt 0.055836 0.108932
vt 0.021746 0.175836
vt 0.010000 0.250000
vt 0.055836 0.391068
vt 0.108931 0.444164
vt 0.175835 0.478254
vt -0.000000 1.000000
vt 0.750000 0.490000
vt 0.675835 0.478254
vt 0.608931 0.444164
vt 0.555836 0.391068
vt 0.521746 0.324164
vt 0.510000 0.250000
vt 0.521746 0.175836
vt 0.608931 0.055836
vt 0.675835 0.021746
vt 0.750000 0.010000
vt 0.824165 0.021746
vt 0.891069 0.055836
vt 0.944164 0.108932
vt 0.978254 0.175836
vt 0.978254 0.324164
vt 0.944164 0.391068
vt 0.891069 0.444164
s 1
f 42/1/1 52/2/2 41/3/2
f 42/1/1 68/4/3 53/5/1
f 73/6/4 68/4/3 63/7/3
f 43/8/5 77/9/4 73/6/4
f 44/10/6 54/11/5 43/8/5
f 64/12/7 55/13/6 44/10/6
f 74/14/8 69/15/7 64/12/7
f 45/16/9 78/17/8 74/14/8
f 46/18/10 56/19/9 45/16/9
f 65/20/11 57/21/10 46/18/10
f 75/22/12 70/23/11 65/20/11
f 47/24/13 79/25/12 75/22/12
f 48/26/14 58/27/13 47/24/13
f 66/28/15 59/29/14 48/26/14
f 76/30/16 71/31/15 66/28/15
f 49/32/17 80/33/16 76/30/16
f 50/34/18 60/35/17 49/32/17
f 67/36/19 61/37/18 50/34/18
f 18/38/20 34/39/20 2/40/20
f 51/41/21 72/42/19 67/36/19
f 41/43/2 40/44/21 51/41/21
f 27/45/22 11/46/22 3/47/22
f 42/1/1 53/5/1 52/2/2
f 42/1/1 63/7/3 68/4/3
f 73/6/4 77/9/4 68/4/3
f 43/8/5 54/11/5 77/9/4
f 44/10/6 55/13/6 54/11/5
f 64/12/7 69/15/7 55/13/6
f 74/14/8 78/17/8 69/15/7
f 45/16/9 56/19/9 78/17/8
f 46/18/10 57/21/10 56/19/9
f 65/20/11 70/23/11 57/21/10
f 75/22/12 79/25/12 70/23/11
f 47/24/13 58/27/13 79/25/12
f 48/26/14 59/29/14 58/27/13
f 66/28/15 71/31/15 59/29/14
f 76/30/16 80/33/16 71/31/15
f 49/32/17 60/35/17 80/33/16
f 50/34/18 61/37/18 60/35/17
f 67/36/19 72/42/19 61/37/18
f 2/40/20 4/48/20 6/49/20
f 6/49/20 8/50/20 10/51/20
f 10/51/20 12/52/20 14/53/20
f 14/53/20 16/54/20 18/38/20
f 18/38/20 20/55/20 22/56/20
f 22/56/20 24/57/20 26/58/20
f 26/58/20 28/59/20 30/60/20
f 30/60/20 32/61/20 34/39/20
f 34/39/20 36/62/20 38/63/20
f 38/63/20 62/64/20 2/40/20
f 2/40/20 6/49/20 10/51/20
f 10/51/20 14/53/20 18/38/20
f 18/38/20 22/56/20 26/58/20
f 26/58/20 30/60/20 34/39/20
f 34/39/20 38/63/20 2/40/20
f 2/40/20 10/51/20 18/38/20
f 18/38/20 26/58/20 34/39/20
f 51/41/21 40/44/21 72/42/19
f 41/43/2 52/65/2 40/44/21
f 3/47/22 1/66/22 39/67/22
f 39/67/22 37/68/22 35/69/22
f 35/69/22 33/70/22 31/71/22
f 31/71/22 29/72/22 27/45/22
f 27/45/22 25/73/22 23/74/22
f 23/74/22 21/75/22 19/76/22
f 19/76/22 17/77/22 15/78/22
f 15/78/22 13/79/22 11/46/22
f 11/46/22 9/80/22 7/81/22
f 7/81/22 5/82/22 3/47/22
f 3/47/22 39/67/22 35/69/22
f 35/69/22 31/71/22 27/45/22
f 27/45/22 23/74/22 19/76/22
f 19/76/22 15/78/22 11/46/22
f 11/46/22 7/81/22 3/47/22
f 3/47/22 35/69/22 27/45/22
f 27/45/22 19/76/22 11/46/22
