# Blender 4.4.3
# www.blender.org
o IntaminBlitzSpine_2
v 0.000000 -0.980000 0.050000
v -0.069018 -0.989087 0.050000
v -0.133333 -1.015727 0.050000
v -0.188562 -1.058105 0.050000
v -0.230940 -1.113334 0.050000
v -0.257580 -1.177649 0.050000
v -0.266667 -1.246667 0.050000
v -0.257580 -1.315685 0.050000
v -0.230940 -1.380000 0.050000
v -0.188562 -1.435229 0.050000
v -0.133333 -1.477607 0.050000
v -0.069018 -1.504247 0.050000
v 0.000000 -1.513334 0.050000
v 0.069018 -1.504247 0.050000
v 0.133333 -1.477607 0.050000
v 0.188562 -1.435229 0.050000
v 0.230940 -1.380000 0.050000
v 0.257580 -1.315685 0.050000
v 0.266666 -1.246667 0.050000
v 0.257580 -1.177649 0.050000
v 0.230940 -1.113334 0.050000
v 0.188562 -1.058105 0.050000
v 0.133333 -1.015727 0.050000
v 0.069018 -0.989087 0.050000
v 0.000000 -0.980000 -0.050000
v -0.069018 -0.989087 -0.050000
v -0.133333 -1.015727 -0.050000
v -0.188562 -1.058105 -0.050000
v -0.230940 -1.113334 -0.050000
v -0.257580 -1.177649 -0.050000
v -0.266667 -1.246667 -0.050000
v -0.257580 -1.315685 -0.050000
v -0.230940 -1.380000 -0.050000
v -0.188562 -1.435229 -0.050000
v -0.133333 -1.477607 -0.050000
v -0.069018 -1.504247 -0.050000
v 0.000000 -1.513334 -0.050000
v 0.069018 -1.504247 -0.050000
v 0.133333 -1.477607 -0.050000
v 0.188562 -1.435229 -0.050000
v 0.230940 -1.380000 -0.050000
v 0.257580 -1.315685 -0.050000
v 0.266666 -1.246667 -0.050000
v 0.257580 -1.177649 -0.050000
v 0.230940 -1.113334 -0.050000
v 0.188562 -1.058105 -0.050000
v 0.133333 -1.015727 -0.050000
v 0.069018 -0.989087 -0.050000
vn -0.5000 0.8660 -0.0000
vn -0.7071 0.7071 -0.0000
vn 0.8660 -0.5000 -0.0000
vn 0.9659 -0.2588 -0.0000
vn -0.2588 0.9659 -0.0000
vn -1.0000 -0.0000 -0.0000
vn -0.9659 -0.2588 -0.0000
vn 0.8660 0.5000 -0.0000
vn 0.7071 0.7071 -0.0000
vn -0.9659 0.2588 -0.0000
vn -0.5000 -0.8660 -0.0000
vn -0.2588 -0.9659 -0.0000
vn -0.8660 0.5000 -0.0000
vn -0.7071 -0.7071 -0.0000
vn 0.5000 -0.8660 -0.0000
vn 0.7071 -0.7071 -0.0000
vn -0.8660 -0.5000 -0.0000
vn 0.2588 -0.9659 -0.0000
vn 1.0000 -0.0000 -0.0000
vn 0.9659 0.2588 -0.0000
vn -0.0000 -1.0000 -0.0000
vn 0.5000 0.8660 -0.0000
vn 0.2588 0.9659 -0.0000
vn -0.0000 1.0000 -0.0000
vt 0.000000 0.000000
s 1
f 27/1/1 4/1/2 3/1/1
f 41/1/3 18/1/4 17/1/3
f 26/1/5 3/1/1 2/1/5
f 31/1/6 8/1/7 7/1/6
f 45/1/8 22/1/9 21/1/8
f 30/1/10 7/1/6 6/1/10
f 35/1/11 12/1/12 11/1/11
f 28/1/2 5/1/13 4/1/2
f 34/1/14 11/1/11 10/1/14
f 39/1/15 16/1/16 15/1/15
f 32/1/7 9/1/17 8/1/7
f 38/1/18 15/1/15 14/1/18
f 43/1/19 20/1/20 19/1/19
f 12/1/12 37/1/21 13/1/21
f 42/1/4 19/1/19 18/1/4
f 29/1/13 6/1/10 5/1/13
f 47/1/22 24/1/23 23/1/22
f 40/1/16 17/1/3 16/1/16
f 46/1/9 23/1/22 22/1/9
f 33/1/17 10/1/14 9/1/17
f 25/1/24 2/1/5 1/1/24
f 44/1/20 21/1/8 20/1/20
f 13/1/21 38/1/18 14/1/18
f 24/1/23 25/1/24 1/1/24
f 27/1/1 28/1/2 4/1/2
f 41/1/3 42/1/4 18/1/4
f 26/1/5 27/1/1 3/1/1
f 31/1/6 32/1/7 8/1/7
f 45/1/8 46/1/9 22/1/9
f 30/1/10 31/1/6 7/1/6
f 35/1/11 36/1/12 12/1/12
f 28/1/2 29/1/13 5/1/13
f 34/1/14 35/1/11 11/1/11
f 39/1/15 40/1/16 16/1/16
f 32/1/7 33/1/17 9/1/17
f 38/1/18 39/1/15 15/1/15
f 43/1/19 44/1/20 20/1/20
f 12/1/12 36/1/12 37/1/21
f 42/1/4 43/1/19 19/1/19
f 29/1/13 30/1/10 6/1/10
f 47/1/22 48/1/23 24/1/23
f 40/1/16 41/1/3 17/1/3
f 46/1/9 47/1/22 23/1/22
f 33/1/17 34/1/14 10/1/14
f 25/1/24 26/1/5 2/1/5
f 44/1/20 45/1/8 21/1/8
f 13/1/21 37/1/21 38/1/18
f 24/1/23 48/1/23 25/1/24
