# Blender 4.4.3
# www.blender.org
o RMCRail_EndCap
v -0.642712 0.032955 0.000000
v -0.642712 0.052969 0.000000
v -0.405111 0.052969 0.000000
v -0.590543 0.032955 0.000000
v -0.405111 -0.052323 0.000000
v -0.466353 -0.052323 0.000000
v -0.590543 -0.302574 0.000000
v -0.466353 -0.302574 0.000000
v -0.414760 -0.302574 0.000000
v -0.414760 -0.322558 0.000000
v -0.642896 -0.302574 0.000000
v -0.642896 -0.322558 0.000000
v -0.405111 0.032955 0.000000
v -0.590543 -0.052323 0.000000
v 0.642712 0.032955 0.000000
v 0.642712 0.052969 0.000000
v 0.405111 0.052969 0.000000
v 0.590543 0.032955 0.000000
v 0.405111 -0.052323 0.000000
v 0.466353 -0.052323 0.000000
v 0.590543 -0.302574 0.000000
v 0.466353 -0.302574 0.000000
v 0.414760 -0.302574 0.000000
v 0.414760 -0.322558 0.000000
v 0.642896 -0.302574 0.000000
v 0.642896 -0.322558 0.000000
v 0.405111 0.032955 0.000000
v 0.590543 -0.052323 0.000000
vn -0.0000 -0.0000 1.0000
vt 0.000000 0.000000
s 1
f 5/1/1 4/1/1 14/1/1
f 8/1/1 14/1/1 7/1/1
f 3/1/1 1/1/1 13/1/1
f 12/1/1 9/1/1 11/1/1
f 18/1/1 19/1/1 28/1/1
f 28/1/1 22/1/1 21/1/1
f 15/1/1 17/1/1 27/1/1
f 23/1/1 26/1/1 25/1/1
f 5/1/1 13/1/1 4/1/1
f 8/1/1 6/1/1 14/1/1
f 3/1/1 2/1/1 1/1/1
f 12/1/1 10/1/1 9/1/1
f 18/1/1 27/1/1 19/1/1
f 28/1/1 20/1/1 22/1/1
f 15/1/1 16/1/1 17/1/1
f 23/1/1 24/1/1 26/1/1
