# Blender 4.4.3
# www.blender.org
o RMCTie
v -0.758994 -0.331885 0.047178
v -0.758994 -0.322414 0.047178
v -0.758994 -0.331885 -0.054243
v -0.758994 -0.322414 -0.054243
v 0.758994 -0.331885 0.047178
v 0.758994 -0.322414 0.047178
v 0.758994 -0.331885 -0.054243
v 0.758994 -0.322414 -0.054243
v -0.758994 -0.331885 0.037064
v -0.758994 -0.322414 0.037064
v 0.758994 -0.331885 0.037064
v 0.758994 -0.322414 0.037064
v -0.758994 -0.422903 0.037064
v -0.758994 -0.422903 0.047178
v 0.758994 -0.422903 0.047178
v 0.758994 -0.422903 0.037064
vn -1.0000 -0.0000 -0.0000
vn -0.0000 -0.0000 -1.0000
vn 1.0000 -0.0000 -0.0000
vn -0.0000 -0.0000 1.0000
vn -0.0000 1.0000 -0.0000
vn -0.0000 -1.0000 -0.0000
vt 0.375000 0.026243
vt 0.625000 0.250000
vt 0.375000 0.250000
vt 0.625000 0.500000
vt 0.375000 0.500000
vt 0.625000 0.723757
vt 0.375000 0.750000
vt 0.375000 0.723757
vt 0.625000 0.750000
vt 0.375000 1.000000
vt 0.875000 0.723757
vt 0.875000 0.500000
vt 0.125000 0.500000
vt 0.125000 0.723757
vt 0.625000 0.000000
vt 0.375000 0.000000
vt 0.125000 0.750000
vt 0.625000 0.026243
vt 0.625000 1.000000
vt 0.875000 0.750000
s 0
f 9/1/1 4/2/1 3/3/1
f 3/3/2 8/4/2 7/5/2
f 12/6/3 5/7/3 11/8/3
f 6/9/4 1/10/4 5/7/4
f 1/10/4 15/7/4 5/7/4
f 10/11/5 6/9/5 12/6/5
f 4/12/5 12/6/5 8/4/5
f 3/13/6 11/8/6 9/14/6
f 8/4/3 11/8/3 7/5/3
f 2/15/1 9/1/1 1/16/1
f 16/8/6 14/17/6 13/14/6
f 11/8/2 13/14/2 9/14/2
f 9/1/1 14/16/1 1/16/1
f 5/7/3 16/8/3 11/8/3
f 9/1/1 10/18/1 4/2/1
f 3/3/2 4/2/2 8/4/2
f 12/6/3 6/9/3 5/7/3
f 6/9/4 2/19/4 1/10/4
f 1/10/4 14/10/4 15/7/4
f 10/11/5 2/20/5 6/9/5
f 4/12/5 10/11/5 12/6/5
f 3/13/6 7/5/6 11/8/6
f 8/4/3 12/6/3 11/8/3
f 2/15/1 10/18/1 9/1/1
f 16/8/6 15/7/6 14/17/6
f 11/8/2 16/8/2 13/14/2
f 9/1/1 13/1/1 14/16/1
f 5/7/3 15/7/3 16/8/3
