<svg xmlns="http://www.w3.org/2000/svg" viewBox="0 0 100 125" fill="none" x="0px" y="0px">
    <path d="M24.2904 75.8071H14.7297V85.3678H24.2904V75.8071Z" fill="white" />
    <path d="M55.8403 44.2578H46.2797V53.8185H55.8403V44.2578Z" fill="white" />
    <path d="M87.7031 12.3945H78.1425V21.9552H87.7031V12.3945Z" fill="white" />
    <path
        d="M19.5103 82.4996V78.6752C27.3679 78.6664 34.9011 75.5411 40.4573 69.985C46.0136 64.4289 49.139 56.8957 49.1479 49.0381V48.7246C49.158 39.8531 52.6867 31.3479 58.9598 25.0748C65.2329 18.8017 73.7382 15.2732 82.6097 15.2632H82.9229V19.0876H82.6097C74.7521 19.0963 67.2189 22.2216 61.6627 27.7777C56.1065 33.3339 52.9812 40.8671 52.9723 48.7246V49.0378C52.9622 57.9094 49.4335 66.4146 43.1603 72.6878C36.8871 78.9609 28.3818 82.4895 19.5103 82.4996Z"
        fill="white" />
    <path d="M95 95H5V5H9.86486V90.1351H95V95Z" fill="white" />
</svg>
