<svg xmlns="http://www.w3.org/2000/svg" version="1.1" viewBox="-5.0 -10.0 110.0 135.0">
    <path
        fill="white"
        d="m68.586 5.0312h25.031c1.7148 0 1.3477 2.1094 1.3477 3.5977v22.785c0 0.74219-0.60547 1.3477-1.3477 1.3477h-4.4961c-0.74219 0-1.3477-0.60547-1.3477-1.3477l-0.003907-19.188h-19.184c-0.74219 0-1.3477-0.60547-1.3477-1.3477v-4.4961c0-0.74609 0.60547-1.3516 1.3477-1.3516zm26.383 63.555v25.031c0 1.7148-2.1055 1.3477-3.5977 1.3477l-22.785 0.003906c-0.74219 0-1.3477-0.60547-1.3477-1.3477v-4.4961c0-0.74219 0.60547-1.3477 1.3477-1.3477h19.188v-19.191c0-0.74219 0.60547-1.3477 1.3477-1.3477h4.4961c0.74609 0 1.3516 0.60547 1.3516 1.3477zm-63.555 26.383h-25.031c-1.7148 0-1.3477-2.1055-1.3477-3.5977l-0.003906-22.785c0-0.74219 0.60547-1.3477 1.3477-1.3477h4.4961c0.74219 0 1.3477 0.60547 1.3477 1.3477v19.188h19.188c0.74219 0 1.3477 0.60547 1.3477 1.3477v4.4961c0.003907 0.74609-0.60156 1.3516-1.3438 1.3516zm-26.383-63.555v-25.031c0-1.7148 2.1055-1.3477 3.5977-1.3477h22.785c0.74219 0 1.3477 0.60547 1.3477 1.3477v4.4961c0 0.74219-0.60547 1.3477-1.3477 1.3477h-19.188v19.188c0 0.74219-0.60547 1.3477-1.3477 1.3477h-4.4961c-0.74609 0-1.3516-0.60547-1.3516-1.3477z"
        fill-rule="evenodd" />
</svg>
