# Blender 4.4.3
# www.blender.org
o DefaultRail_StartCap
v -0.456000 -0.300000 -0.000000
v -0.456000 -0.034000 -0.000000
v -0.656000 -0.300000 -0.000000
v -0.656000 -0.034000 -0.000000
v -0.400500 -0.034000 -0.000000
v -0.400500 0.042000 -0.000000
v -0.600500 -0.034000 -0.000000
v -0.600500 0.042000 -0.000000
v 0.456000 -0.300000 -0.000000
v 0.456000 -0.034000 -0.000000
v 0.656000 -0.300000 -0.000000
v 0.656000 -0.034000 -0.000000
v 0.400500 -0.034000 -0.000000
v 0.400500 0.042000 -0.000000
v 0.600500 -0.034000 -0.000000
v 0.600500 0.042000 -0.000000
vn -0.0000 -0.0000 -1.0000
vt 0.288742 0.638889
vt 0.873538 0.861111
vt 0.873538 0.638889
vt 0.126462 -0.138889
vt 0.711257 0.638889
vt 0.711257 -0.138889
vt 0.288742 0.861111
vt 0.126462 0.638889
s 1
f 7/1/1 6/2/1 5/3/1
f 3/4/1 2/5/1 1/6/1
f 14/2/1 15/1/1 13/3/1
f 10/5/1 11/4/1 9/6/1
f 7/1/1 8/7/1 6/2/1
f 3/4/1 4/8/1 2/5/1
f 14/2/1 16/7/1 15/1/1
f 10/5/1 12/8/1 11/4/1
