# Blender 4.4.3
# www.blender.org
o DefaultRail
v -0.456000 -0.300000 0.050000
v -0.456000 -0.034000 0.050000
v -0.656000 -0.300000 0.050000
v -0.656000 -0.034000 0.050000
v -0.400500 -0.034000 0.050000
v -0.400500 0.042000 0.050000
v -0.600500 -0.034000 0.050000
v -0.600500 0.042000 0.050000
v -0.456000 -0.300000 -0.050000
v -0.456000 -0.034000 -0.050000
v -0.656000 -0.300000 -0.050000
v -0.656000 -0.034000 -0.050000
v -0.400500 -0.034000 -0.050000
v -0.400500 0.042000 -0.050000
v -0.600500 -0.034000 -0.050000
v -0.600500 0.042000 -0.050000
v 0.456000 -0.300000 0.050000
v 0.456000 -0.034000 0.050000
v 0.656000 -0.300000 0.050000
v 0.656000 -0.034000 0.050000
v 0.400500 -0.034000 0.050000
v 0.400500 0.042000 0.050000
v 0.600500 -0.034000 0.050000
v 0.600500 0.042000 0.050000
v 0.456000 -0.300000 -0.050000
v 0.456000 -0.034000 -0.050000
v 0.656000 -0.300000 -0.050000
v 0.656000 -0.034000 -0.050000
v 0.400500 -0.034000 -0.050000
v 0.400500 0.042000 -0.050000
v 0.600500 -0.034000 -0.050000
v 0.600500 0.042000 -0.050000
v -0.656000 -0.300000 0.050000
v -0.656000 -0.300000 -0.050000
v -0.456000 -0.300000 -0.050000
v -0.456000 -0.300000 0.050000
v -0.600500 -0.034000 0.050000
v -0.600500 -0.034000 -0.050000
v -0.400500 -0.034000 -0.050000
v -0.400500 -0.034000 0.050000
v -0.456000 -0.034000 0.050000
v -0.456000 -0.034000 -0.050000
v -0.656000 -0.034000 -0.050000
v -0.656000 -0.034000 0.050000
v -0.400500 0.042000 0.050000
v -0.400500 0.042000 -0.050000
v -0.600500 0.042000 -0.050000
v -0.600500 0.042000 0.050000
v 0.656000 -0.300000 0.050000
v 0.656000 -0.300000 -0.050000
v 0.456000 -0.300000 -0.050000
v 0.456000 -0.300000 0.050000
v 0.600500 -0.034000 0.050000
v 0.600500 -0.034000 -0.050000
v 0.400500 -0.034000 -0.050000
v 0.400500 -0.034000 0.050000
v 0.456000 -0.034000 0.050000
v 0.456000 -0.034000 -0.050000
v 0.656000 -0.034000 -0.050000
v 0.656000 -0.034000 0.050000
v 0.400500 0.042000 0.050000
v 0.400500 0.042000 -0.050000
v 0.600500 0.042000 -0.050000
v 0.600500 0.042000 0.050000
vn -0.0000 -1.0000 -0.0000
vn -0.0000 1.0000 -0.0000
vn -1.0000 -0.0000 -0.0000
vn 1.0000 -0.0000 -0.0000
vt 0.126462 0.353801
vt 0.711257 0.646199
vt 0.711257 0.353801
vt 0.288743 0.353801
vt 0.873538 0.646199
vt 0.873538 0.353801
vt 0.126462 0.646199
vt 0.646199 -0.138889
vt 0.353801 0.638889
vt 0.353801 -0.138889
vt 0.288743 0.646199
vt 0.646199 0.638889
vt 0.353801 0.861111
vt 0.646199 0.861111
s 1
f 3/1/1 9/2/1 1/3/1
f 7/4/1 13/5/1 5/6/1
f 2/3/2 12/7/2 4/1/2
f 35/8/4 41/9/4 36/10/4
f 6/6/2 16/11/2 8/4/2
f 39/12/4 45/13/4 40/9/4
f 43/12/3 33/10/3 44/9/3
f 47/14/3 37/9/3 48/13/3
f 25/2/1 19/1/1 17/3/1
f 29/5/1 23/4/1 21/6/1
f 28/7/2 18/3/2 20/1/2
f 57/9/3 51/8/3 52/10/3
f 32/11/2 22/6/2 24/4/2
f 61/13/3 55/12/3 56/9/3
f 49/10/4 59/12/4 60/9/4
f 53/9/4 63/14/4 64/13/4
f 3/1/1 11/7/1 9/2/1
f 7/4/1 15/11/1 13/5/1
f 2/3/2 10/2/2 12/7/2
f 35/8/4 42/12/4 41/9/4
f 6/6/2 14/5/2 16/11/2
f 39/12/4 46/14/4 45/13/4
f 43/12/3 34/8/3 33/10/3
f 47/14/3 38/12/3 37/9/3
f 25/2/1 27/7/1 19/1/1
f 29/5/1 31/11/1 23/4/1
f 28/7/2 26/2/2 18/3/2
f 57/9/3 58/12/3 51/8/3
f 32/11/2 30/5/2 22/6/2
f 61/13/3 62/14/3 55/12/3
f 49/10/4 50/8/4 59/12/4
f 53/9/4 54/12/4 63/14/4
